<svg xmlns="http://www.w3.org/2000/svg" width="81" height="80" fill="none" viewBox="0 0 81 80">
  <path fill="#1BCEB9" d="M59.524 30.373c-4.591 0-8.656 3.168-9.884 7.703-.173.64.192 1.302.816 1.48a1.17 1.17 0 0 0 1.442-.837c.948-3.498 4.084-5.942 7.626-5.942 4.366 0 7.917 3.643 7.917 8.12 0 4.477-3.551 8.12-7.917 8.12-3.347 0-6.347-2.175-7.463-5.412a1.164 1.164 0 0 0-1.496-.732 1.21 1.21 0 0 0-.714 1.534c1.448 4.195 5.335 7.013 9.674 7.013 5.657 0 10.26-4.72 10.26-10.523s-4.603-10.523-10.26-10.523Z"/>
  <path fill="#1BCEB9" d="M64.706 40.897c0-2.93-2.324-5.314-5.181-5.314s-5.182 2.384-5.182 5.314 2.325 5.314 5.182 5.314 5.181-2.384 5.181-5.314Zm-8.019 0c0-1.605 1.273-2.91 2.838-2.91 1.565 0 2.838 1.305 2.838 2.91 0 1.605-1.273 2.91-2.838 2.91-1.565 0-2.838-1.305-2.838-2.91ZM13.795 20.5a1.158 1.158 0 0 0 .931.348c.345-.031.66-.217.858-.509l6.93-10.154a1.222 1.222 0 0 0-.287-1.674 1.154 1.154 0 0 0-1.633.295l-6.13 8.981L10.09 13.3a1.15 1.15 0 0 0-1.657 0 1.224 1.224 0 0 0 0 1.7l5.363 5.5Z"/>
  <path fill="#1BCEB9" d="M77.718 35.802h-2.947a.275.275 0 0 1-.257-.193 16.48 16.48 0 0 0-.745-1.84.289.289 0 0 1 .048-.326l2.085-2.138a2.7 2.7 0 0 0 .766-1.897 2.7 2.7 0 0 0-.766-1.897L72.576 24.1a2.565 2.565 0 0 0-1.85-.786c-.698 0-1.355.28-1.849.786l-2.085 2.138a.27.27 0 0 1-.317.05 15.58 15.58 0 0 0-1.794-.765.281.281 0 0 1-.19-.263v-3.023c0-1.48-1.172-2.682-2.614-2.682h-.968c-5.597-6.19-13.59-10.071-22.45-10.071-3.175 0-6.238.5-9.12 1.425a14.435 14.435 0 0 0-2.165-4.853A35.024 35.024 0 0 1 38.46 4.198c9.558 0 18.543 3.817 25.302 10.749.457.469 1.2.469 1.657 0 .457-.47.457-1.23 0-1.7C58.217 5.86 48.643 1.794 38.459 1.794c-4.475 0-8.83.79-12.92 2.297C23.019 1.563 19.574 0 15.779 0 9.515 0 3.98 4.324 2.319 10.515c-.17.64.196 1.301.82 1.477a1.17 1.17 0 0 0 1.44-.84c1.382-5.15 5.987-8.748 11.2-8.748 6.405 0 11.617 5.345 11.617 11.915 0 6.57-5.212 11.915-11.617 11.915a11.44 11.44 0 0 1-7.56-2.87 12 12 0 0 1-3.903-7.115c-.104-.655-.707-1.1-1.345-.993-.639.107-1.073.725-.968 1.38a14.486 14.486 0 0 0 2.595 6.253C1.81 28.385.333 34.524.333 40.897.333 51.342 4.3 61.16 11.5 68.547 18.701 75.933 28.275 80 38.46 80c10.183 0 19.757-4.067 26.958-11.453.458-.47.458-1.23 0-1.7s-1.2-.47-1.657 0c-6.758 6.932-15.744 10.75-25.302 10.75-9.557 0-18.543-3.818-25.301-10.75-6.759-6.931-10.48-16.147-10.48-25.95 0-5.669 1.246-11.14 3.603-16.087a13.865 13.865 0 0 0 4.413 2.84A31.893 31.893 0 0 0 7.83 40.897c0 17.321 13.74 31.413 30.628 31.413 8.86 0 16.853-3.88 22.45-10.07h.968c1.442 0 2.615-1.204 2.615-2.682v-3.023a.28.28 0 0 1 .188-.264c.61-.215 1.214-.473 1.795-.764a.27.27 0 0 1 .317.049l2.085 2.139a2.566 2.566 0 0 0 3.699 0l3.326-3.412a2.734 2.734 0 0 0 0-3.793l-2.085-2.14a.288.288 0 0 1-.048-.324c.284-.596.535-1.215.745-1.84a.275.275 0 0 1 .257-.194h2.947c1.442 0 2.615-1.203 2.615-2.682v-4.825c0-1.48-1.173-2.683-2.615-2.683ZM57.592 19.554h-.42c-1.442 0-2.615 1.204-2.615 2.683v1.437a33.687 33.687 0 0 0-2.338-4.767c-1.26-2.109-2.67-3.886-4.195-5.31a28.203 28.203 0 0 1 9.568 5.957Zm-7.371.608c1.075 1.8 1.99 3.796 2.738 5.94a16.2 16.2 0 0 0-.385.185.271.271 0 0 1-.317-.049L50.172 24.1a2.572 2.572 0 0 0-3.699 0l-1.148 1.178a71.7 71.7 0 0 0-1.029-6.007c-.626-2.85-1.356-5.083-2.185-6.692 3.024 1.16 5.822 3.754 8.11 7.584Zm-7.48 33.575h-9.112a106.758 106.758 0 0 1-.28-3.093c-.05-.662-.613-1.157-1.258-1.105-.646.051-1.128.63-1.078 1.291.075.994.162 1.962.258 2.907h-7.937c-1.043-3.594-1.637-7.539-1.734-11.638h9.059c.009 1.023.025 2.05.056 3.067.02.664.563 1.185 1.208 1.164.647-.021 1.155-.576 1.135-1.24a138.19 138.19 0 0 1-.056-2.99h5.713v1.21c0 1.479 1.173 2.682 2.615 2.682h2.499a124.67 124.67 0 0 1-.215 4.018l-.467.48c-.857.878-.99 2.22-.407 3.247Zm-19.407-25.68h7.935c-.37 3.622-.58 7.56-.614 11.638H21.6c.097-4.1.691-8.044 1.734-11.638Zm15.381 10.427v1.211H33c.035-4.092.25-8.034.626-11.638h9.114a2.715 2.715 0 0 0-.358 1.351c0 .717.272 1.39.766 1.896l.467.48c.092 1.31.164 2.651.215 4.018h-2.498c-1.443 0-2.616 1.203-2.616 2.682Zm-.256-26.596c.504 0 2.125 1.42 3.55 7.91.391 1.78.727 3.746 1.002 5.855h-9.104a68.95 68.95 0 0 1 1.002-5.854c1.425-6.49 3.046-7.911 3.55-7.911Zm-8.845 4.345c1.606-1.717 3.357-2.952 5.193-3.655-.829 1.609-1.559 3.842-2.185 6.692a72.619 72.619 0 0 0-1.078 6.383h-7.245a14.403 14.403 0 0 0 5.315-9.42ZM12.97 28.341a13.596 13.596 0 0 0 6.745-.283h1.183c-.988 3.629-1.55 7.566-1.642 11.637h-9.054a29.396 29.396 0 0 1 2.768-11.354Zm-2.768 13.758h9.054c.093 4.071.654 8.008 1.642 11.638h-7.795a29.397 29.397 0 0 1-2.9-11.638Zm4.204 14.042h7.223c.824 2.438 1.853 4.707 3.07 6.746 1.26 2.109 2.672 3.886 4.196 5.31-6.05-2.236-11.148-6.531-14.489-12.056Zm12.292 5.49c-1-1.673-1.862-3.516-2.58-5.49h7.427c.473 3.733 1.117 6.988 1.903 9.583.418 1.383.866 2.543 1.345 3.486-3.017-1.162-5.81-3.754-8.095-7.579Zm11.762 8.275c-.447 0-1.601-1.023-2.774-4.895-.714-2.358-1.32-5.407-1.773-8.87h9.1a69.46 69.46 0 0 1-1.002 5.854c-1.426 6.49-3.047 7.911-3.55 7.911Zm3.652-.69c.83-1.61 1.559-3.842 2.185-6.692a71.79 71.79 0 0 0 1.029-6.008l1.148 1.178a2.572 2.572 0 0 0 3.699 0l2.085-2.139a.27.27 0 0 1 .317-.048c.128.063.256.125.385.185-.748 2.144-1.663 4.14-2.738 5.94-2.288 3.83-5.086 6.425-8.11 7.584Zm5.913-1.019c1.525-1.424 2.936-3.201 4.195-5.31a33.67 33.67 0 0 0 2.338-4.767v1.437c0 1.48 1.173 2.682 2.615 2.682h.42a28.207 28.207 0 0 1-9.568 5.958ZM77.99 43.31a.275.275 0 0 1-.272.279h-2.947c-1.115 0-2.109.729-2.473 1.814-.179.532-.392 1.06-.635 1.567a2.739 2.739 0 0 0 .496 3.081l2.086 2.14a.28.28 0 0 1 0 .393l-3.327 3.412a.263.263 0 0 1-.192.081.264.264 0 0 1-.192-.081l-2.085-2.14a2.571 2.571 0 0 0-3.004-.508c-.495.249-1.01.467-1.528.65a2.684 2.684 0 0 0-1.77 2.537v3.023a.275.275 0 0 1-.27.279h-4.705a.275.275 0 0 1-.271-.279v-3.023c0-1.143-.711-2.163-1.77-2.536a13.257 13.257 0 0 1-1.527-.65 2.573 2.573 0 0 0-3.004.508l-2.086 2.138a.263.263 0 0 1-.192.082.263.263 0 0 1-.192-.081l-3.326-3.412a.277.277 0 0 1-.08-.197c0-.053.014-.13.08-.197l2.085-2.139c.79-.81.989-2.048.496-3.081a14.007 14.007 0 0 1-.634-1.567c-.365-1.085-1.359-1.814-2.474-1.814H41.33a.275.275 0 0 1-.271-.279v-4.825c0-.153.121-.278.271-.278h2.947c1.115 0 2.11-.729 2.474-1.814.178-.532.392-1.06.634-1.567a2.738 2.738 0 0 0-.496-3.082l-2.085-2.138a.277.277 0 0 1-.08-.197c0-.053.014-.13.08-.197L48.13 25.8a.263.263 0 0 1 .192-.081c.052 0 .127.014.192.081l2.086 2.14a2.572 2.572 0 0 0 3.004.507 13.282 13.282 0 0 1 1.528-.65c1.058-.374 1.769-1.393 1.769-2.537v-3.023c0-.153.122-.278.271-.278h4.705c.15 0 .27.125.27.279v3.022c0 1.144.712 2.163 1.77 2.537.519.183 1.033.402 1.527.65a2.571 2.571 0 0 0 3.005-.508l2.085-2.139a.263.263 0 0 1 .192-.081c.052 0 .126.014.192.081l3.327 3.412a.282.282 0 0 1 0 .394l-2.086 2.139a2.738 2.738 0 0 0-.495 3.081c.242.507.455 1.034.634 1.567.364 1.085 1.358 1.814 2.473 1.814h2.948c.15 0 .27.125.27.278v4.825Z"/>
</svg>
