<svg xmlns="http://www.w3.org/2000/svg" width="80" height="71" fill="none" viewBox="0 0 80 71">
  <path fill="#1BCEB9" d="M23.946 37.197h-1.558a1.15 1.15 0 0 0 0 2.299h.409v6.14a1.15 1.15 0 0 0 2.298 0v-7.29a1.15 1.15 0 0 0-1.149-1.149Zm-9.081-14.743h.408v6.14a1.15 1.15 0 0 0 2.3 0v-7.29a1.15 1.15 0 0 0-1.15-1.149h-1.558a1.15 1.15 0 1 0 0 2.3Zm52.181 11.099h-1.558a1.15 1.15 0 0 0 0 2.299h.409v6.139a1.15 1.15 0 1 0 2.298 0v-7.289a1.15 1.15 0 0 0-1.149-1.15Zm-52.181 3.496a3.261 3.261 0 0 0-3.257 3.257v3.37a3.261 3.261 0 0 0 3.257 3.258 3.26 3.26 0 0 0 3.257-3.257v-3.371a3.26 3.26 0 0 0-3.257-3.257Zm.958 6.628a.96.96 0 0 1-1.916 0v-3.371a.96.96 0 0 1 1.916 0v3.37Zm49.139-16.28a3.261 3.261 0 0 0 3.257-3.257v-3.371a3.261 3.261 0 0 0-3.257-3.257 3.261 3.261 0 0 0-3.257 3.257v3.37a3.26 3.26 0 0 0 3.257 3.258Zm-.958-6.628a.96.96 0 0 1 1.916 0v3.37a.96.96 0 0 1-1.916 0v-3.37Z"/>
  <path fill="#1BCEB9" d="M78.85 27.24a1.15 1.15 0 0 0-1.149 1.15v26.952a3.069 3.069 0 0 1-3.065 3.065H16.423a1.15 1.15 0 0 0 0 2.299h12.308v7.355h-2.404a1.15 1.15 0 0 0 0 2.298h27.345a1.15 1.15 0 0 0 0-2.298H51.27v-7.355h23.367A5.37 5.37 0 0 0 80 55.342V28.39a1.15 1.15 0 0 0-1.15-1.15ZM48.97 68.06H31.03v-7.354h17.94v7.355Z"/>
  <path fill="#1BCEB9" d="M74.636 4.949H52.067a18.066 18.066 0 0 0-2.171-1.684 1.15 1.15 0 0 0-1.266 1.919 15.81 15.81 0 0 1 2.472 2.018c6.122 6.123 6.122 16.083 0 22.205-6.121 6.122-16.083 6.122-22.205 0-6.121-6.122-6.121-16.082 0-22.205a15.738 15.738 0 0 1 15.334-4.02 1.149 1.149 0 1 0 .617-2.215A18.043 18.043 0 0 0 27.937 4.95H5.364A5.37 5.37 0 0 0 0 10.312v45.03a5.37 5.37 0 0 0 5.364 5.364h5.497a1.15 1.15 0 0 0 0-2.299H5.364A3.069 3.069 0 0 1 2.3 55.342v-45.03a3.069 3.069 0 0 1 3.065-3.065h20.432a17.848 17.848 0 0 0-2.356 4.004H7.155c-.803 0-1.456.653-1.456 1.456v37.936c0 .803.653 1.456 1.456 1.456h65.69c.803 0 1.456-.653 1.456-1.456V12.707c0-.803-.653-1.456-1.456-1.456H56.56a17.852 17.852 0 0 0-2.356-4.004h20.432a3.069 3.069 0 0 1 3.065 3.065v9.035a1.15 1.15 0 1 0 2.299 0v-9.035a5.37 5.37 0 0 0-5.364-5.363ZM53.551 30.152l6.046 6.046c.97.902.24 2.663-1.083 2.616-.41 0-.795-.16-1.084-.449l-6.085-6.085a18.005 18.005 0 0 0 2.206-2.129ZM48.805 49.8H46.89v-2.944a.96.96 0 0 1 1.916 0V49.8Zm23.197-36.25V49.8H51.104v-2.944a3.26 3.26 0 0 0-3.257-3.257 3.261 3.261 0 0 0-3.257 3.257V49.8H7.998V13.55h14.645c-1.641 6.031-.099 12.755 4.629 17.483A17.945 17.945 0 0 0 40 36.297a18 18 0 0 0 9.444-2.667l6.36 6.36c1.426 1.487 3.993 1.487 5.419.001 1.486-1.426 1.486-3.992 0-5.419l-6.26-6.26c2.943-4.396 3.74-9.812 2.394-14.762h14.645Z"/>
  <path fill="#1BCEB9" d="M39.79 56.441a1.465 1.465 0 1 0 0-2.93 1.465 1.465 0 0 0 0 2.93ZM26.747 17.103a1.75 1.75 0 0 0 0 2.608c1.493 1.333 6.86 5.683 13.253 5.683 6.392 0 11.76-4.35 13.252-5.683a1.75 1.75 0 0 0 0-2.608C51.76 15.77 46.393 11.42 40 11.42s-11.76 4.35-13.253 5.683Zm10.79 1.304a2.49 2.49 0 0 1 2.487-2.487 2.49 2.49 0 0 1 2.487 2.487 2.49 2.49 0 0 1-2.487 2.486 2.49 2.49 0 0 1-2.486-2.486Zm1.27-4.628a4.794 4.794 0 0 0-3.568 4.628 4.794 4.794 0 0 0 3.567 4.628c-4.539-.44-8.407-3.253-10.052-4.628 1.645-1.376 5.513-4.188 10.052-4.628Zm2.46 9.249a4.793 4.793 0 0 0 3.543-4.621 4.793 4.793 0 0 0-3.543-4.621c4.508.463 8.343 3.253 9.979 4.62-1.636 1.369-5.472 4.159-9.98 4.622Z"/>
</svg>
