<svg xmlns="http://www.w3.org/2000/svg" width="81" height="78" fill="none" viewBox="0 0 81 78">
  <path fill="#1BCEB9" d="M8.822 22.982h14.576a1.172 1.172 0 0 0 0-2.344H8.822a1.172 1.172 0 0 0 0 2.344Zm0-6.9H31.02a1.172 1.172 0 0 0 0-2.344H8.82a1.172 1.172 0 0 0 0 2.344Zm57.024 45.931H50.313a1.172 1.172 0 1 0 0 2.344h15.532a1.172 1.172 0 1 0 0-2.344Z"/>
  <path fill="#1BCEB9" d="M77.68 47.785h-8.449c2.514-3.788 3.865-8.23 3.865-12.88 0-1.809-.209-3.584-.606-5.303a3.9 3.9 0 0 0 2.552-3.655V4.07A3.898 3.898 0 0 0 71.15.176H49.272a3.898 3.898 0 0 0-3.894 3.894v7.897a23.298 23.298 0 0 0-6.202 2.104V3.163A2.99 2.99 0 0 0 36.19.176H3.653A2.99 2.99 0 0 0 .667 3.163v24.066a2.99 2.99 0 0 0 2.986 2.986h4.67a1.172 1.172 0 0 0 0-2.343h-4.67a.643.643 0 0 1-.642-.643V9.658h33.821v5.777a23.36 23.36 0 0 0-5.605 5.223 1.17 1.17 0 0 0-.206-.02h-3.087a1.172 1.172 0 1 0 0 2.344h1.716a23.198 23.198 0 0 0-2.182 4.89H13.792a1.172 1.172 0 0 0 0 2.343h13.073c-1.228 6.038-.058 12.47 3.51 17.754L24.9 53.446a2.715 2.715 0 0 0-1.517-.458c-.73 0-1.417.284-1.933.8L8.767 66.47a6.607 6.607 0 0 0-1.948 4.703c0 1.777.692 3.447 1.948 4.703a6.607 6.607 0 0 0 4.703 1.948 6.607 6.607 0 0 0 4.702-1.948l12.682-12.682a2.715 2.715 0 0 0 .801-1.934c0-.548-.16-1.07-.458-1.516l5.476-5.477a23.175 23.175 0 0 0 5.485 2.727v3.558a1.172 1.172 0 1 0 2.343 0V57.66a23.518 23.518 0 0 0 11.97-.393h21.852v11.572a.643.643 0 0 1-.642.642H45.144a.643.643 0 0 1-.642-.642v-3.484a1.172 1.172 0 1 0-2.344 0v3.484a2.99 2.99 0 0 0 2.986 2.986h32.537a2.99 2.99 0 0 0 2.986-2.986V50.77a2.99 2.99 0 0 0-2.986-2.986ZM3.01 7.315V3.162c0-.355.289-.643.643-.643H36.19c.354 0 .642.288.642.643v4.151H3.011ZM47.723 4.07c0-.855.695-1.55 1.55-1.55H71.15c.854 0 1.55.695 1.55 1.55v21.877c0 .854-.696 1.55-1.55 1.55h-7.703c-.31 0-.608.123-.828.343l-6.152 6.152V28.67c0-.648-.525-1.172-1.172-1.172h-6.022c-.855 0-1.55-.695-1.55-1.55V4.07ZM29.197 61.537 16.515 74.219a4.279 4.279 0 0 1-3.046 1.261 4.278 4.278 0 0 1-3.045-1.261 4.28 4.28 0 0 1-1.262-3.046c0-1.15.448-2.232 1.262-3.045l12.682-12.682a.39.39 0 0 1 .552 0l5.539 5.538c.152.153.152.4 0 .553Zm.38-3.488-2.984-2.983 5.205-5.205a23.465 23.465 0 0 0 2.983 2.983l-5.204 5.205Zm5.302-8.286c-8.193-8.193-8.193-21.524 0-29.718a20.883 20.883 0 0 1 10.5-5.686v3.693a17.304 17.304 0 0 0-7.954 4.54 17.314 17.314 0 0 0-4.814 9.166 1.172 1.172 0 1 0 2.306.421 14.982 14.982 0 0 1 4.166-7.93 14.957 14.957 0 0 1 6.295-3.761v5.459a3.898 3.898 0 0 0 3.894 3.893h4.85v4.79a2.083 2.083 0 0 0 2.081 2.08c.54 0 1.07-.21 1.468-.61l6.256-6.255c1.884 5.31.71 11.472-3.533 15.715-5.876 5.875-15.436 5.875-21.311 0a14.954 14.954 0 0 1-4.23-8.304 1.172 1.172 0 0 0-2.315.363 17.284 17.284 0 0 0 4.887 9.598 17.299 17.299 0 0 0 12.313 5.1 17.3 17.3 0 0 0 12.313-5.1c4.695-4.695 6.142-11.426 4.344-17.377h3.741a21.13 21.13 0 0 1 .616 5.064 20.88 20.88 0 0 1-6.155 14.86c-8.193 8.192-21.524 8.193-29.718 0Zm43.444 5.16H61.776a23.324 23.324 0 0 0 5.678-4.795h10.227c.354 0 .642.289.642.643v4.151Z"/>
  <path fill="#1BCEB9" d="M55.823 12.726c.647 0 1.172-.525 1.172-1.172 0-.897.36-1.729 1.014-2.344a3.195 3.195 0 0 1 2.409-.865c1.585.098 2.903 1.417 3.002 3.002a3.227 3.227 0 0 1-1.963 3.172 3.956 3.956 0 0 0-2.419 3.663c0 .647.525 1.168 1.172 1.168.647 0 1.172-.529 1.172-1.176 0-.656.386-1.243.985-1.494a5.573 5.573 0 0 0 3.392-5.478 5.558 5.558 0 0 0-5.196-5.196 5.51 5.51 0 0 0-4.16 1.497 5.582 5.582 0 0 0-1.752 4.051c0 .647.525 1.172 1.172 1.172Zm4.387 8.205c-.647 0-1.171.525-1.171 1.172v.747a1.172 1.172 0 1 0 2.343 0v-.747c0-.647-.524-1.172-1.172-1.172Z"/>
</svg>
