<svg xmlns="http://www.w3.org/2000/svg" width="81" height="62" fill="none" viewBox="0 0 81 62">
  <path fill="#1BCEB9" d="M79.641 47.952a5.059 5.059 0 0 1-2.01-4.052 5.06 5.06 0 0 1 2.01-4.053c.6-.456.84-1.242.6-1.955a18.78 18.78 0 0 0-.99-2.388 1.755 1.755 0 0 0-1.806-.956 5.14 5.14 0 0 1-1.018.035 1.14 1.14 0 0 0-.147 2.275c.362.024.727.02 1.089-.01.219.466.417.943.591 1.426a7.313 7.313 0 0 0-2.609 5.626c0 2.191.946 4.22 2.609 5.626-.174.482-.372.96-.591 1.424a7.318 7.318 0 0 0-5.823 2.134 7.316 7.316 0 0 0-2.134 5.823c-.465.219-.941.417-1.424.59a7.315 7.315 0 0 0-5.626-2.608 7.317 7.317 0 0 0-5.628 2.608 16.518 16.518 0 0 1-1.423-.59 7.316 7.316 0 0 0-2.134-5.823 7.308 7.308 0 0 0-4.585-2.133 9.825 9.825 0 0 1 6.924-4.308 7.407 7.407 0 0 0 6.846 4.632c4.067 0 7.375-3.309 7.375-7.375 0-4.067-3.308-7.376-7.375-7.376a7.31 7.31 0 0 0-2.8.55 9.87 9.87 0 0 1-1.932-7.881 7.31 7.31 0 0 0 4.732 1.717 7.317 7.317 0 0 0 5.627-2.608c.482.174.959.372 1.424.59a7.331 7.331 0 0 0 1.383 4.945 1.14 1.14 0 0 0 1.843-1.342 5.068 5.068 0 0 1-.925-3.678 1.756 1.756 0 0 0-.956-1.806 18.806 18.806 0 0 0-2.387-.99c-.714-.24-1.5 0-1.955.6a5.06 5.06 0 0 1-4.054 2.01 5.054 5.054 0 0 1-3.943-1.874 9.857 9.857 0 0 1 3.012-3.66 2.063 2.063 0 0 0 .728-2.304 32.34 32.34 0 0 0-1.8-4.34 2.063 2.063 0 0 0-2.142-1.112 9.79 9.79 0 0 1-8.392-2.786 9.884 9.884 0 0 1-2.74-8.676 1.588 1.588 0 0 0-.834-1.693A32.319 32.319 0 0 0 41.243.108a1.589 1.589 0 0 0-1.788.608 9.887 9.887 0 0 1-8.075 4.199 9.884 9.884 0 0 1-8.075-4.2 1.589 1.589 0 0 0-1.788-.607 32.295 32.295 0 0 0-5.01 2.079c-.618.32-.953 1-.833 1.692a9.908 9.908 0 0 1 .037 3.18 1.14 1.14 0 0 0 2.255.338c.17-1.133.18-2.277.031-3.409a30.049 30.049 0 0 1 3.743-1.553 12.165 12.165 0 0 0 9.64 4.76c3.78 0 7.346-1.77 9.641-4.76 1.276.431 2.53.952 3.74 1.553a12.166 12.166 0 0 0 3.451 10.18 12.05 12.05 0 0 0 10.18 3.451 30.06 30.06 0 0 1 1.553 3.742A12.042 12.042 0 0 0 55.185 31c0 3.78 1.77 7.346 4.76 9.64a30.068 30.068 0 0 1-1.553 3.741 12.17 12.17 0 0 0-10.18 3.452 12.17 12.17 0 0 0-3.451 10.18 30.293 30.293 0 0 1-3.74 1.552 12.165 12.165 0 0 0-9.64-4.76 12.17 12.17 0 0 0-9.643 4.76A30.082 30.082 0 0 1 18 58.012a12.114 12.114 0 0 0-1.781-8.097 1.14 1.14 0 1 0-1.925 1.223 9.847 9.847 0 0 1 1.383 6.983 1.587 1.587 0 0 0 .833 1.692 32.32 32.32 0 0 0 5.005 2.077 1.588 1.588 0 0 0 1.788-.607 9.888 9.888 0 0 1 8.077-4.199 9.883 9.883 0 0 1 8.075 4.2 1.59 1.59 0 0 0 1.788.607 32.334 32.334 0 0 0 5.007-2.077c.619-.32.953-1 .833-1.693a9.893 9.893 0 0 1 .386-4.89 5.055 5.055 0 0 1 4.096 1.465 5.06 5.06 0 0 1 1.446 4.286c-.1.746.284 1.471.956 1.806.77.383 1.573.717 2.386.99a1.755 1.755 0 0 0 1.955-.6 5.06 5.06 0 0 1 4.054-2.01c1.603 0 3.08.733 4.054 2.01a1.756 1.756 0 0 0 1.955.6 18.813 18.813 0 0 0 2.387-.99 1.755 1.755 0 0 0 .956-1.806 5.06 5.06 0 0 1 1.445-4.286 5.061 5.061 0 0 1 4.287-1.445c.743.1 1.47-.284 1.805-.956.384-.77.717-1.574.991-2.389a1.756 1.756 0 0 0-.6-1.955Zm-21.139-1.248a1.589 1.589 0 0 0 1.692-.834 32.324 32.324 0 0 0 2.078-5.008c.265-.79-.164-1.566-.856-1.969 3.086-.615 6.075 1.855 6.042 5.007a5.101 5.101 0 0 1-5.096 5.095 5.12 5.12 0 0 1-4.295-2.356c.145.019.29.04.435.065Z"/>
  <path fill="#1BCEB9" d="M41.58 46.548A19.518 19.518 0 0 0 50 30.5C50 19.748 41.252 11 30.5 11S11 19.748 11 30.5 19.748 50 30.5 50c1.795 0 3.574-.244 5.286-.725a1.342 1.342 0 1 0-.726-2.585c-1.476.415-3.01.626-4.56.626-9.272 0-16.816-7.544-16.816-16.816 0-9.272 7.544-16.815 16.816-16.815 9.272 0 16.815 7.543 16.815 16.815a16.833 16.833 0 0 1-7.262 13.84 1.342 1.342 0 1 0 1.527 2.208Z"/>
  <path fill="#1BCEB9" d="M10.862 45.306a12.12 12.12 0 0 0-6.494-.924 30.044 30.044 0 0 1-1.552-3.74A12.17 12.17 0 0 0 7.575 31c0-3.803-1.764-7.345-4.76-9.64.43-1.276.95-2.529 1.551-3.74a12.17 12.17 0 0 0 11.401-4.875 1.14 1.14 0 1 0-1.84-1.347 9.89 9.89 0 0 1-9.67 3.9 1.589 1.589 0 0 0-1.692.833 32.321 32.321 0 0 0-2.181 5.34 1.14 1.14 0 0 0 .463 1.286A9.846 9.846 0 0 1 5.295 31a9.887 9.887 0 0 1-4.199 8.077 1.588 1.588 0 0 0-.607 1.787 32.302 32.302 0 0 0 2.077 5.007c.32.619 1.001.954 1.693.833a9.86 9.86 0 0 1 5.684.689 1.14 1.14 0 1 0 .92-2.086ZM31.849 23.79l-4.77 13.492c-.227.643.052 1.373.624 1.629.558.254 1.22-.052 1.448-.702l4.77-13.49c.227-.645-.052-1.374-.624-1.63-.572-.255-1.22.058-1.448.702Zm4.766 14.05c.577.327 1.34.14 1.682-.436l3.537-5.921c.225-.377.22-.843-.01-1.216l-3.538-5.69a1.253 1.253 0 0 0-1.69-.405 1.174 1.174 0 0 0-.419 1.639l3.161 5.085-3.172 5.311c-.34.571-.14 1.302.449 1.632ZM24.404 24.172a1.253 1.253 0 0 0-1.69.406l-3.537 5.69a1.163 1.163 0 0 0-.011 1.215l3.537 5.921c.343.576 1.105.763 1.683.435.588-.33.789-1.061.448-1.632l-3.173-5.311 3.162-5.085a1.174 1.174 0 0 0-.419-1.64Z"/>
</svg>
