<svg xmlns="http://www.w3.org/2000/svg" width="80" height="67" fill="none" viewBox="0 0 80 67">
  <path fill="#1BCEB9" d="M71.98 8.957v36.106H7.994V8.957h3.757a1.149 1.149 0 1 0 0-2.298h-4.6c-.802 0-1.455.653-1.455 1.455v37.792c0 .802.653 1.455 1.456 1.455h65.67c.802 0 1.455-.653 1.455-1.455V8.114c0-.802-.653-1.455-1.456-1.455H17.36a1.149 1.149 0 1 0 0 2.298"/>
  <path fill="#1BCEB9" d="m60.849 11.692-4.77 11.804a1.092 1.092 0 0 0 .624 1.426 1.122 1.122 0 0 0 1.448-.614l4.77-11.805a1.092 1.092 0 0 0-.624-1.425 1.121 1.121 0 0 0-1.448.614Zm-39 22-4.77 11.804a1.092 1.092 0 0 0 .624 1.426 1.122 1.122 0 0 0 1.448-.614l4.77-11.805a1.092 1.092 0 0 0-.624-1.425 1.121 1.121 0 0 0-1.448.614Zm42.766-9.83c.577.28 1.34.121 1.682-.372l3.537-5.076a.877.877 0 0 0-.01-1.042l-3.538-4.877c-.351-.484-1.108-.64-1.69-.348-.583.292-.77.921-.419 1.405l3.161 4.359-3.172 4.552c-.34.49-.14 1.116.449 1.4Zm-39 22c.577.28 1.34.121 1.682-.373l3.537-5.075a.877.877 0 0 0-.01-1.042l-3.538-4.877c-.351-.484-1.108-.64-1.69-.348-.582.292-.77.921-.419 1.405l3.161 4.359-3.172 4.552c-.34.49-.14 1.116.449 1.4Zm28.789-33.715c-.582-.292-1.339-.136-1.69.348l-3.537 4.877a.878.878 0 0 0-.011 1.042l3.537 5.075c.343.494 1.105.654 1.683.373.588-.283.789-.91.448-1.399l-3.173-4.552 3.162-4.359c.351-.484.163-1.113-.419-1.405Zm-39 22c-.582-.292-1.339-.136-1.69.348l-3.537 4.877a.878.878 0 0 0-.011 1.042l3.537 5.075c.343.494 1.105.654 1.683.373.588-.283.789-.91.448-1.399l-3.173-4.552 3.162-4.359c.351-.484.163-1.113-.419-1.405Z"/>
  <path fill="#1BCEB9" d="M74.613.358H5.363A5.369 5.369 0 0 0 0 5.72v44.883a5.368 5.368 0 0 0 5.363 5.363h23.36v7.753H26.32a1.149 1.149 0 1 0 0 2.298h27.337a1.149 1.149 0 1 0 0-2.298h-2.403v-7.753h2.165a1.149 1.149 0 1 0 0-2.298H5.363a3.068 3.068 0 0 1-3.064-3.065V5.72a3.068 3.068 0 0 1 3.064-3.064h69.25a3.068 3.068 0 0 1 3.064 3.064v16.556a1.149 1.149 0 1 0 2.298 0V5.72A5.368 5.368 0 0 0 74.613.358Zm-25.658 63.36H31.021v-7.752h17.934v7.753Z"/>
  <path fill="#1BCEB9" d="M78.826 26.58a1.15 1.15 0 0 0-1.149 1.15v22.873a3.068 3.068 0 0 1-3.064 3.064H58.854a1.149 1.149 0 1 0 0 2.298h15.759a5.368 5.368 0 0 0 5.362-5.362V27.73a1.15 1.15 0 0 0-1.149-1.15ZM39.9 51.856a1.465 1.465 0 1 0 0-2.93 1.465 1.465 0 0 0 0 2.93Z"/>
  <path fill="#1BCEB9" fill-rule="evenodd" d="m16.128 21.203.001-.002.915-1.431a1.673 1.673 0 0 1 1.06-.738v-.095c0-.616.507-1.117 1.128-1.117h1.534a3.88 3.88 0 0 1 .169-.446 2.613 2.613 0 0 1-.192-.576l-1.245-.503a1.355 1.355 0 0 1-.852-1.286l-1.003-.367a1.829 1.829 0 0 1-1.034-.944.195.195 0 0 0-.231-.103l-.515.155a.829.829 0 0 1-1.031-.547.818.818 0 0 1 .552-1.022l.514-.155a1.862 1.862 0 0 1 2.21.98.19.19 0 0 0 .108.098l.985.361a1.372 1.372 0 0 1 1.698-.575l.97.392.335-.673a3.77 3.77 0 0 1 1.035-1.277 2.275 2.275 0 0 1-.104-.492c-.546-.044-1.065-.281-1.365-.77a1.65 1.65 0 0 1-.112-1.595l.46-.996a.83.83 0 0 1 1.096-.404.817.817 0 0 1 .408 1.086l-.45.973a.433.433 0 0 0-.008.053.45.45 0 0 0 .052.014h.41a2.32 2.32 0 0 1 2.523-.749c.234.076.49.076.724 0a2.32 2.32 0 0 1 2.523.75l.411-.001a.462.462 0 0 0 .052-.014.437.437 0 0 0-.009-.053l-.449-.973a.816.816 0 0 1 .408-1.086.83.83 0 0 1 1.096.404l.46.996a1.65 1.65 0 0 1-.11 1.593c-.302.49-.82.728-1.367.772a2.273 2.273 0 0 1-.104.492c.426.337.782.769 1.035 1.277l.335.673.97-.392a1.372 1.372 0 0 1 1.698.575l.984-.36a.19.19 0 0 0 .108-.099 1.862 1.862 0 0 1 2.21-.98l.515.155a.818.818 0 0 1 .552 1.022.829.829 0 0 1-1.032.547l-.514-.155a.195.195 0 0 0-.23.103 1.83 1.83 0 0 1-1.035.944l-1.003.368a1.359 1.359 0 0 1-.852 1.285l-1.245.503a2.611 2.611 0 0 1-.192.576c.065.144.121.293.168.446h1.535c.621 0 1.127.5 1.127 1.117v.095c.435.094.817.355 1.061.738l.914 1.431.001.002c.02.004.066.012.094.013.06.003.119 0 .172-.002h.01c.45 0 .872.174 1.19.489l.42.416a.814.814 0 0 1 0 1.159.833.833 0 0 1-1.17 0l-.42-.417a.664.664 0 0 0-.063-.008c-.074-.004-.148 0-.211 0-.58 0-1.11-.29-1.42-.775l-.915-1.432-.001-.002a2.48 2.48 0 0 1-1.875 1.187v.375h.417c.816 0 1.48.657 1.48 1.466v.008c-.006.262.01.709-.032 1.032a.516.516 0 0 0 .358.146c1.037 0 1.88.833 1.885 1.857a.826.826 0 0 1-.827.858.826.826 0 0 1-.827-.855.23.23 0 0 0-.23-.22c-.43 0-.845-.13-1.194-.36-.349.271-.786.42-1.222.405a6.128 6.128 0 0 1-2.598 3.607c-.797.533-1.944.267-2.423-.578l-.002-.003c-.082-.15-.611-1.045-.977-1.683l-.901 1.545c.294.06.595.09.9.09.456 0 .826.366.826.82 0 .452-.37.819-.827.819a6.227 6.227 0 0 1-3.973-1.43 6.112 6.112 0 0 1-2.029-3.188 1.825 1.825 0 0 1-1.159-.357 2.3 2.3 0 0 1-.06-.047c-.35.23-.767.36-1.196.36a.23.23 0 0 0-.23.22.826.826 0 0 1-.828.855.825.825 0 0 1-.827-.853 1.878 1.878 0 0 1 1.885-1.862.516.516 0 0 0 .358-.146c-.043-.323-.025-.767-.031-1.032v-.008c0-.809.663-1.466 1.479-1.466h.417v-.375a2.48 2.48 0 0 1-1.874-1.186l-.002.001-.914 1.432c-.31.485-.84.775-1.42.775-.064 0-.138-.004-.21 0a.67.67 0 0 0-.064.008l-.421.417a.833.833 0 0 1-1.17 0 .815.815 0 0 1 0-1.16l.42-.416a1.678 1.678 0 0 1 1.2-.488c.054.002.113.004.173.002a.773.773 0 0 0 .093-.013Zm2.467 3.874a.373.373 0 0 1-.102-.165.89.89 0 0 1-.016-.06.37.37 0 0 0 .114.228.06.06 0 0 0 .004-.003Zm.156-.134c-.08-.18-.184-.388-.218-.333l-.004.006c-.113.188-.013.336.105.433a.886.886 0 0 0 .117-.106Zm3.825-9.377a3.987 3.987 0 0 1 1.995-.535h3.881c.72 0 1.404.194 1.995.535l-1.112-2.231a2.127 2.127 0 0 0-1.917-1.18h-1.813c-.82 0-1.554.452-1.917 1.18l-1.112 2.23Zm10.06 4.618a.79.79 0 0 0 .626-.725h-.702c.03.241.056.483.077.725Zm-12.56 3.661v.506c0 .196.09.383.244.505l-.002-1.01h-.243Zm-.315-4.386a.79.79 0 0 0 .625.725c.021-.242.047-.484.077-.725h-.702Zm11.29 5.563v-3.28c0-1.076-.106-2.156-.317-3.211a2.327 2.327 0 0 0-2.282-1.86h-1.113v.445c0 .452-.37.82-.827.82a.823.823 0 0 1-.828-.82v-.446h-1.113a2.327 2.327 0 0 0-2.282 1.86 16.453 16.453 0 0 0-.317 3.211v3.281c0 1.273.537 2.466 1.465 3.31.114.085.228.194.348.294.088.074.17.163.28.157a.067.067 0 0 0 .03-.027l1.138-1.95a3.324 3.324 0 0 0 .451-1.672v-1.259c0-.452.37-.82.828-.82.456 0 .827.368.827.82v1.259c0 .586.156 1.164.452 1.671l1.136 1.951.002.003c.014.025.046.043.07.027a4.48 4.48 0 0 0 2.053-3.764Zm1.652-.166a.649.649 0 0 0 .245-.505v-.506h-.243l-.002 1.011Zm-12.316-9.972.569.23.006-.013.173-.346-.596-.24-.152.369Zm4.393-4.303a.58.58 0 0 0 0 .023c.266-.059.543-.09.825-.09h1.813c.282 0 .559.031.826.09l-.001-.023a.655.655 0 0 0-.854-.571 2.857 2.857 0 0 1-1.755 0 .655.655 0 0 0-.854.571Zm7.856 4.303-.152-.37-.596.241.172.346.007.013.57-.23Zm10.492 22.319.001-.002.915-1.431a1.673 1.673 0 0 1 1.06-.738v-.095c0-.616.507-1.117 1.128-1.117h1.534a3.88 3.88 0 0 1 .169-.446 2.613 2.613 0 0 1-.192-.576l-1.245-.503a1.355 1.355 0 0 1-.852-1.286l-1.003-.367a1.829 1.829 0 0 1-1.034-.944.195.195 0 0 0-.231-.103l-.515.155a.829.829 0 0 1-1.031-.547.818.818 0 0 1 .552-1.022l.514-.155a1.862 1.862 0 0 1 2.21.98.19.19 0 0 0 .108.099l.985.36a1.372 1.372 0 0 1 1.698-.575l.97.392.336-.673a3.77 3.77 0 0 1 1.034-1.278 2.275 2.275 0 0 1-.104-.49c-.546-.045-1.065-.282-1.365-.77a1.65 1.65 0 0 1-.112-1.596l.46-.997a.83.83 0 0 1 1.096-.403.817.817 0 0 1 .408 1.086l-.45.973a.433.433 0 0 0-.008.053c.013.004.033.01.052.014h.41a2.323 2.323 0 0 1 2.523-.749c.234.076.49.076.724 0a2.32 2.32 0 0 1 2.523.75l.411-.001a.469.469 0 0 0 .052-.014.439.439 0 0 0-.009-.053l-.449-.973a.816.816 0 0 1 .408-1.086.83.83 0 0 1 1.096.404l.46.996a1.65 1.65 0 0 1-.11 1.593c-.302.49-.82.728-1.367.772a2.273 2.273 0 0 1-.104.492c.426.337.782.769 1.035 1.277l.335.673.97-.392a1.372 1.372 0 0 1 1.698.575l.984-.36a.19.19 0 0 0 .108-.099 1.862 1.862 0 0 1 2.21-.98l.515.155a.818.818 0 0 1 .552 1.022.829.829 0 0 1-1.032.547l-.514-.155a.195.195 0 0 0-.23.103 1.83 1.83 0 0 1-1.035.944l-1.003.368a1.359 1.359 0 0 1-.852 1.285l-1.245.503a2.611 2.611 0 0 1-.192.576c.065.144.121.293.168.446h1.535c.621 0 1.127.5 1.127 1.117v.096c.435.093.817.354 1.061.737l.914 1.431.001.002c.02.004.066.012.094.013.06.003.119 0 .172-.002h.01c.45 0 .872.174 1.19.489l.42.416a.814.814 0 0 1 0 1.159.833.833 0 0 1-1.17 0l-.42-.417a.664.664 0 0 0-.063-.008c-.074-.004-.147 0-.211 0-.58 0-1.11-.29-1.42-.775l-.915-1.432-.001-.002a2.48 2.48 0 0 1-1.875 1.187v.375h.417c.816 0 1.48.657 1.48 1.466v.008c-.006.262.01.709-.032 1.032a.516.516 0 0 0 .358.146c1.037 0 1.88.833 1.885 1.857a.826.826 0 0 1-.827.858.826.826 0 0 1-.827-.855.23.23 0 0 0-.23-.22c-.43 0-.845-.13-1.194-.36-.349.271-.786.42-1.222.405a6.128 6.128 0 0 1-2.598 3.607c-.797.533-1.944.267-2.423-.578l-.002-.003c-.082-.15-.611-1.045-.977-1.683l-.901 1.545c.294.06.595.09.9.09.456 0 .826.367.826.82 0 .452-.37.819-.827.819a6.227 6.227 0 0 1-3.973-1.43 6.112 6.112 0 0 1-2.029-3.188 1.825 1.825 0 0 1-1.159-.357 2.3 2.3 0 0 1-.06-.047c-.35.23-.767.36-1.196.36a.23.23 0 0 0-.23.22.826.826 0 0 1-.828.855.825.825 0 0 1-.827-.853 1.878 1.878 0 0 1 1.885-1.862.516.516 0 0 0 .358-.146c-.043-.323-.025-.767-.031-1.032v-.008c0-.808.663-1.466 1.479-1.466h.417v-.375a2.48 2.48 0 0 1-1.874-1.187l-.002.002-.914 1.432c-.31.485-.84.775-1.42.775-.064 0-.138-.004-.21 0a.67.67 0 0 0-.064.008l-.421.417a.833.833 0 0 1-1.17 0 .815.815 0 0 1 0-1.16l.42-.416a1.678 1.678 0 0 1 1.2-.488c.054.002.113.004.172.002a.773.773 0 0 0 .094-.013Zm2.467 3.874a.373.373 0 0 1-.102-.165.89.89 0 0 1-.016-.06.37.37 0 0 0 .114.228l.004-.003Zm.156-.134c-.08-.18-.184-.387-.218-.333l-.004.005c-.113.19-.013.337.105.434a.886.886 0 0 0 .117-.106Zm3.825-9.377a3.987 3.987 0 0 1 1.995-.535h3.881c.72 0 1.404.194 1.995.535l-1.112-2.231a2.127 2.127 0 0 0-1.917-1.18h-1.813c-.82 0-1.554.451-1.917 1.18l-1.112 2.23Zm10.06 4.618a.79.79 0 0 0 .626-.725h-.702c.03.241.056.483.077.725Zm-12.56 3.661v.506c0 .196.09.383.244.505l-.002-1.01h-.243Zm-.315-4.386a.79.79 0 0 0 .625.725c.021-.242.047-.484.077-.725h-.702Zm11.29 5.563v-3.28c0-1.076-.106-2.156-.317-3.211a2.327 2.327 0 0 0-2.282-1.86h-1.113v.444c0 .453-.37.82-.828.82a.823.823 0 0 1-.827-.82v-.445h-1.113a2.327 2.327 0 0 0-2.282 1.86 16.453 16.453 0 0 0-.317 3.211v3.281c0 1.273.537 2.466 1.465 3.31.114.085.228.194.348.294.088.074.17.163.28.157a.067.067 0 0 0 .03-.027l1.138-1.95a3.324 3.324 0 0 0 .451-1.672v-1.258c0-.453.37-.82.828-.82.456 0 .827.367.827.82v1.258c0 .586.156 1.164.452 1.671l1.136 1.951.002.002c.014.026.046.044.07.028l.004-.003a4.48 4.48 0 0 0 2.048-3.761Zm1.652-.166a.649.649 0 0 0 .245-.505v-.506h-.243l-.002 1.011Zm-12.316-9.972.569.23.006-.013.173-.346-.596-.24-.152.369Zm4.393-4.303a.58.58 0 0 0 0 .023c.266-.059.543-.09.825-.09h1.813c.282 0 .559.031.826.09l-.001-.023a.655.655 0 0 0-.854-.571 2.857 2.857 0 0 1-1.755 0 .655.655 0 0 0-.854.571Zm7.856 4.303-.152-.37-.596.241.172.346.007.013.57-.23Z" clip-rule="evenodd"/>
</svg>
