<svg width="1440" height="520" viewBox="0 0 1440 520" fill="none" xmlns="http://www.w3.org/2000/svg">
<path fill-rule="evenodd" clip-rule="evenodd" d="M1098.22 518.145L1167.39 259.999L462.118 71.0229L342.312 518.147" fill="#00023B"/>
<path fill-rule="evenodd" clip-rule="evenodd" d="M1100.01 518.625C1099.74 519.613 1098.73 520.199 1097.74 519.935C1096.75 519.67 1096.17 518.654 1096.43 517.667L1165.12 261.31L463.428 73.2917L344.101 518.627C343.837 519.614 342.821 520.201 341.834 519.937C340.846 519.672 340.26 518.656 340.524 517.669L460.33 70.5446C460.595 69.5569 461.61 68.9707 462.598 69.2354L1167.87 258.212C1168.86 258.477 1169.44 259.492 1169.18 260.48L1100.01 518.626L1100.01 518.625Z" fill="#EA1763" fill-opacity="0.2"/>
<path fill-rule="evenodd" clip-rule="evenodd" d="M1141.82 518.145L1218.97 384.519L586.639 19.4437L298.713 518.146" fill="#00023B"/>
<path fill-rule="evenodd" clip-rule="evenodd" d="M1143.42 519.072C1142.91 519.957 1141.78 520.261 1140.89 519.75C1140.01 519.239 1139.7 518.105 1140.21 517.22L1216.44 385.197C1181.5 365.025 587.317 21.9754 587.317 21.9754L300.317 519.073C299.806 519.958 298.673 520.262 297.788 519.751C296.903 519.24 296.599 518.107 297.11 517.222L585.036 18.5195C585.547 17.6338 586.68 17.3305 587.565 17.8418L1219.89 382.917C1220.78 383.428 1221.08 384.561 1220.57 385.446L1143.42 519.073L1143.42 519.072Z" fill="#EA1763" fill-opacity="0.3"/>
<path fill-rule="evenodd" clip-rule="evenodd" d="M1236.56 518.145L720.264 1.85114L203.97 518.145" fill="#00023B"/>
<path fill-rule="evenodd" clip-rule="evenodd" d="M1237.87 516.837C1238.59 517.559 1238.59 518.733 1237.87 519.455C1237.15 520.178 1235.97 520.178 1235.25 519.455L720.267 4.46992L205.282 519.455C204.56 520.178 203.386 520.178 202.664 519.455C201.941 518.733 201.941 517.559 202.664 516.837L718.958 0.542456C719.681 -0.180819 720.853 -0.180819 721.576 0.542456L1237.87 516.837H1237.87Z" fill="#EA1763" fill-opacity="0.4"/>
<path fill-rule="evenodd" clip-rule="evenodd" d="M1141.82 518.145L853.891 19.4432L221.563 384.518L298.713 518.145" fill="#00023B"/>
<path fill-rule="evenodd" clip-rule="evenodd" d="M1143.42 517.221C1143.93 518.106 1143.63 519.239 1142.74 519.75C1141.86 520.261 1140.72 519.958 1140.21 519.072L853.215 21.9747L224.094 385.197L300.317 517.22C300.828 518.105 300.525 519.238 299.64 519.749C298.755 520.26 297.621 519.956 297.11 519.071L219.961 385.445C219.449 384.559 219.753 383.427 220.638 382.915L852.966 17.8401C853.851 17.3288 854.984 17.6321 855.495 18.5179L1143.42 517.22L1143.42 517.221Z" fill="#EA1763" fill-opacity="0.5"/>
<path fill-rule="evenodd" clip-rule="evenodd" d="M1098.22 518.145L978.412 71.0213L273.142 259.998L342.312 518.144" fill="#00023B"/>
<path fill-rule="evenodd" clip-rule="evenodd" d="M1100.01 517.668C1100.27 518.655 1099.69 519.671 1098.7 519.935C1097.71 520.2 1096.69 519.613 1096.43 518.626L977.103 73.2906L275.411 261.309L344.102 517.666C344.366 518.653 343.78 519.669 342.792 519.934C341.805 520.198 340.789 519.612 340.525 518.624L271.354 260.478C271.09 259.49 271.676 258.475 272.664 258.21L977.934 69.2338C978.922 68.9692 979.937 69.5554 980.202 70.5431L1100.01 517.667L1100.01 517.668Z" fill="#EA1763" fill-opacity="0.7"/>
<path fill-rule="evenodd" clip-rule="evenodd" d="M-748 518.207C-607.051 233.788 -2.9007 19.7242 720.103 19.7242C1443.11 19.7242 2047.25 233.788 2188.21 518.207" fill="url(#paint0_radial_362_306)"/>
<defs>
<radialGradient id="paint0_radial_362_306" cx="0" cy="0" r="1" gradientUnits="userSpaceOnUse" gradientTransform="translate(650.829 591.493) rotate(-0.163042) scale(1217.82 571.765)">
<stop stop-color="#EA1763" stop-opacity="0.4"/>
<stop offset="1" stop-color="#EA1763" stop-opacity="0"/>
</radialGradient>
</defs>
</svg>
