<?xml version="1.0" encoding="utf-8"?>
<svg viewBox="0 251.873 500 248.128" xmlns="http://www.w3.org/2000/svg">
  <path fill-rule="evenodd" clip-rule="evenodd" d="M 432.36 499.115 L 465.733 375.937 L 125.445 285.763 L 67.639 499.116" fill="#00023B" style=""/>
  <path fill-rule="evenodd" clip-rule="evenodd" d="M 433.223 499.344 C 433.093 499.816 432.606 500.095 432.128 499.97 C 431.651 499.843 431.366 499.358 431.496 498.887 L 464.638 376.562 L 126.078 286.845 L 68.504 499.345 C 68.375 499.816 67.886 500.096 67.41 499.971 C 66.933 499.844 66.65 499.359 66.777 498.888 L 124.583 285.535 C 124.71 285.064 125.201 284.784 125.677 284.91 L 465.965 375.084 C 466.438 375.21 466.723 375.695 466.598 376.166 L 433.223 499.344 Z" fill="#1BCEB9" fill-opacity="0.2" style=""/>
  <path fill-rule="evenodd" clip-rule="evenodd" d="M 453.396 499.115 L 490.621 435.353 L 185.527 261.151 L 46.605 499.115" fill="#00023B" style=""/>
  <path fill-rule="evenodd" clip-rule="evenodd" d="M 454.168 499.558 C 453.922 499.979 453.372 500.125 452.948 499.881 C 452.518 499.637 452.374 499.096 452.62 498.674 L 489.4 435.677 C 472.542 426.051 185.853 262.36 185.853 262.36 L 47.377 499.558 C 47.131 499.98 46.584 500.125 46.157 499.881 C 45.73 499.638 45.584 499.097 45.83 498.674 L 184.752 260.71 C 184.999 260.288 185.545 260.143 185.972 260.387 L 491.064 434.589 C 491.494 434.833 491.638 435.373 491.393 435.795 L 454.168 499.558 Z" fill="#1BCEB9" fill-opacity="0.3" style=""/>
  <path fill-rule="evenodd" clip-rule="evenodd" d="M 499.108 499.115 L 249.999 252.757 L 0.891 499.115" fill="#00023B" style=""/>
  <path fill-rule="evenodd" clip-rule="evenodd" d="M 499.739 498.49 C 500.087 498.836 500.087 499.395 499.739 499.741 C 499.393 500.085 498.823 500.085 498.476 499.741 L 250.001 254.007 L 1.525 499.741 C 1.177 500.085 0.61 500.085 0.262 499.741 C -0.087 499.395 -0.087 498.836 0.262 498.49 L 249.369 252.132 C 249.718 251.787 250.284 251.787 250.633 252.132 L 499.739 498.49 Z" fill="#1BCEB9" fill-opacity="0.4" style=""/>
  <path fill-rule="evenodd" clip-rule="evenodd" d="M 453.396 499.115 L 314.472 261.151 L 9.38 435.353 L 46.604 499.115" fill="#00023B" style=""/>
  <path fill-rule="evenodd" clip-rule="evenodd" d="M 454.168 498.674 C 454.415 499.096 454.27 499.637 453.841 499.881 C 453.415 500.125 452.865 499.979 452.62 499.558 L 314.147 262.359 L 10.601 435.676 L 47.378 498.673 C 47.624 499.096 47.479 499.636 47.051 499.88 C 46.624 500.124 46.077 499.979 45.831 499.557 L 8.607 435.795 C 8.36 435.372 8.507 434.831 8.934 434.588 L 314.026 260.386 C 314.454 260.142 315 260.286 315.247 260.71 L 454.168 498.673 L 454.168 498.674 Z" fill="#1BCEB9" fill-opacity="0.5" style=""/>
  <path fill-rule="evenodd" clip-rule="evenodd" d="M 432.36 499.115 L 374.554 285.762 L 34.267 375.936 L 67.64 499.114" fill="#00023B" style=""/>
  <path fill-rule="evenodd" clip-rule="evenodd" d="M 433.223 498.888 C 433.349 499.358 433.069 499.843 432.592 499.97 C 432.113 500.095 431.622 499.816 431.496 499.344 L 373.921 286.845 L 35.361 376.561 L 68.504 498.887 C 68.631 499.357 68.349 499.842 67.872 499.969 C 67.396 500.095 66.906 499.815 66.778 499.344 L 33.404 376.165 C 33.276 375.694 33.559 375.209 34.036 375.082 L 374.323 284.91 C 374.799 284.784 375.289 285.063 375.417 285.534 L 433.223 498.887 L 433.223 498.888 Z" fill="#1BCEB9" fill-opacity="0.7" style=""/>
</svg>