<svg width="41" height="40" viewBox="0 0 41 40" fill="none" xmlns="http://www.w3.org/2000/svg">
<g clip-path="url(#clip0_109_1320)">
<path d="M19.1407 4.69153C19.8082 3.00736 22.1918 3.00735 22.8593 4.69153L25.1164 10.3867C25.4583 11.2495 26.349 11.7638 27.2672 11.6285L33.3279 10.7356C35.1201 10.4715 36.312 12.5359 35.1872 13.956L31.3835 18.7582C30.8073 19.4858 30.8073 20.5142 31.3835 21.2418L35.1872 26.044C36.312 27.4641 35.1201 29.5285 33.3279 29.2644L27.2672 28.3715C26.349 28.2362 25.4583 28.7505 25.1164 29.6133L22.8593 35.3085C22.1918 36.9926 19.8082 36.9926 19.1407 35.3085L16.8836 29.6133C16.5417 28.7505 15.651 28.2362 14.7328 28.3715L8.67213 29.2644C6.87986 29.5285 5.68801 27.4642 6.81283 26.044L10.6165 21.2418C11.1927 20.5142 11.1927 19.4858 10.6165 18.7582L6.81283 13.956C5.68801 12.5358 6.87986 10.4715 8.67213 10.7356L14.7328 11.6285C15.651 11.7638 16.5417 11.2495 16.8836 10.3867L19.1407 4.69153Z" stroke="#FFA939" stroke-width="3"/>
</g>
<defs>
<clipPath id="clip0_109_1320">
<rect x="0.5" width="40" height="40" rx="8" fill="white"/>
</clipPath>
</defs>
</svg>
