<svg width="676" height="368" viewBox="0 0 676 368" fill="none" xmlns="http://www.w3.org/2000/svg">
<path fill-rule="evenodd" clip-rule="evenodd" d="M209.401 120.982C209.401 114.361 204.025 108.985 197.404 108.985H71.4288C64.8072 108.985 59.4312 114.361 59.4312 120.982V246.957C59.4312 253.579 64.8072 258.955 71.4288 258.955H197.404C204.025 258.955 209.401 253.579 209.401 246.957V120.982Z" fill="#00023B"/>
<path fill-rule="evenodd" clip-rule="evenodd" d="M616.57 120.982C616.57 114.361 611.194 108.985 604.573 108.985H478.598C471.976 108.985 466.6 114.361 466.6 120.982V246.957C466.6 253.579 471.976 258.955 478.598 258.955H604.573C611.194 258.955 616.57 253.579 616.57 246.957V120.982Z" fill="#00023B"/>
<path d="M121.427 135.29L85.8257 196.951L147.487 232.553L183.089 170.891L121.427 135.29Z" fill="#00023B"/>
<path d="M147.845 233.583L84.8435 197.254L121.173 134.252L184.175 170.658L147.845 233.583ZM86.9129 196.641L147.232 231.514L182.105 171.195L121.786 136.321L86.9129 196.641Z" fill="#EA1763" fill-opacity="0.4"/>
<path d="M147.891 133.674L84.1196 170.494L120.939 234.265L184.711 197.446L147.891 133.674Z" fill="#00023B"/>
<path d="M120.943 234.12L84.2305 170.505L147.922 133.715L184.712 197.407L120.943 234.12ZM87.373 171.348L121.863 231.054L181.569 196.564L147.079 136.858L87.373 171.348Z" fill="#EA1763" fill-opacity="0.7"/>
<path d="M170.072 148.278H98.8696V219.481H170.072V148.278Z" fill="#00023B"/>
<path d="M171.989 221.474H96.9536V146.362H171.989V221.474ZM100.786 217.641H168.156V150.194H100.786V217.641Z" fill="#EA1763"/>
<path d="M129.451 200.166L124.316 185.45H114.045V200.166H109.753V163.224H123.933C126.692 163.224 128.761 163.683 130.141 164.603C131.52 165.523 132.44 166.749 132.823 168.282C133.207 169.815 133.436 171.808 133.436 174.26C133.436 176.943 133.13 179.166 132.44 180.928C131.827 182.691 130.447 183.918 128.378 184.607L134.05 200.166H129.451ZM126.922 180.928C127.841 180.392 128.455 179.626 128.761 178.629C129.068 177.633 129.221 176.177 129.221 174.337C129.221 172.421 129.068 171.041 128.838 170.045C128.608 169.049 127.995 168.359 127.075 167.822C126.155 167.286 124.776 167.056 122.859 167.056H114.045V181.695H122.553C124.469 181.695 125.925 181.465 126.922 180.928Z" fill="white"/>
<path d="M141.178 198.863C139.951 197.714 139.261 195.644 139.261 192.579C139.261 190.509 139.491 188.9 139.951 187.75C140.411 186.6 141.178 185.757 142.251 185.221C143.323 184.684 144.856 184.454 146.849 184.454C147.846 184.454 150.758 184.531 155.587 184.684V182.845C155.587 180.622 155.433 179.012 155.05 178.093C154.667 177.173 154.054 176.56 153.058 176.253C152.138 176.023 150.528 175.87 148.229 175.87C147.232 175.87 145.93 175.947 144.473 176.023C142.94 176.1 141.714 176.253 140.794 176.407V173.111C143.324 172.574 146.236 172.344 149.532 172.344C152.368 172.344 154.514 172.651 155.97 173.264C157.349 173.877 158.346 174.95 158.882 176.407C159.419 177.863 159.649 180.009 159.649 182.845V200.09H155.97L155.74 196.258H155.51C154.897 197.944 153.824 199.093 152.368 199.63C150.911 200.166 149.225 200.473 147.309 200.473C144.473 200.549 142.48 200.013 141.178 198.863ZM152.521 196.564C153.441 196.258 154.207 195.644 154.667 194.725C155.357 193.345 155.663 191.429 155.663 189.129V187.597H147.999C146.696 187.597 145.7 187.75 145.086 187.98C144.473 188.21 144.013 188.67 143.783 189.359C143.554 190.049 143.4 191.046 143.4 192.425C143.4 193.805 143.554 194.801 143.86 195.414C144.167 196.028 144.703 196.487 145.393 196.794C146.159 197.024 147.309 197.177 148.842 197.177C150.298 197.024 151.525 196.871 152.521 196.564Z" fill="white"/>
<path fill-rule="evenodd" clip-rule="evenodd" d="M290.607 240.624C288.808 240.808 286.982 240.902 285.135 240.902C255.752 240.902 231.896 217.046 231.896 187.663C231.896 158.279 255.752 134.423 285.135 134.423C287.832 134.423 290.481 134.624 293.071 135.012C302.457 119.846 319.244 109.734 338.375 109.734C357.257 109.734 373.856 119.585 383.309 134.423C383.328 134.423 383.347 134.423 383.366 134.423C412.749 134.423 436.605 158.279 436.605 187.663C436.605 217.046 412.749 240.902 383.366 240.902C379.011 240.902 374.778 240.378 370.726 239.39C360.958 250.897 346.389 258.204 330.126 258.204C314.453 258.204 300.353 251.417 290.607 240.624Z" fill="white"/>
<path fill-rule="evenodd" clip-rule="evenodd" d="M290.607 240.624C288.808 240.808 286.982 240.902 285.135 240.902C255.752 240.902 231.896 217.046 231.896 187.663C231.896 158.279 255.752 134.423 285.135 134.423C287.832 134.423 290.481 134.624 293.071 135.012C302.457 119.846 319.244 109.734 338.375 109.734C357.257 109.734 373.856 119.585 383.309 134.423C383.328 134.423 383.347 134.423 383.366 134.423C412.749 134.423 436.605 158.279 436.605 187.663C436.605 217.046 412.749 240.902 383.366 240.902C379.011 240.902 374.778 240.378 370.726 239.39C360.958 250.897 346.389 258.204 330.126 258.204C314.453 258.204 300.353 251.417 290.607 240.624ZM292.833 238.614C302.03 248.799 315.336 255.205 330.126 255.205C345.473 255.205 359.221 248.308 368.44 237.449C369.174 236.584 370.334 236.207 371.437 236.476C375.261 237.409 379.256 237.903 383.366 237.903C411.094 237.903 433.606 215.391 433.606 187.663C433.606 159.935 411.094 137.423 383.366 137.423C383.348 137.423 383.33 137.423 383.312 137.423C382.286 137.424 381.331 136.9 380.78 136.035C371.858 122.032 356.194 112.733 338.375 112.733C320.321 112.733 304.479 122.278 295.621 136.59C294.99 137.61 293.812 138.156 292.626 137.978C290.182 137.612 287.681 137.423 285.135 137.423C257.407 137.423 234.895 159.935 234.895 187.663C234.895 215.391 257.407 237.903 285.135 237.903C286.879 237.903 288.603 237.814 290.301 237.64C291.252 237.543 292.192 237.905 292.833 238.614Z" fill="#00023B"/>
<path d="M318.339 176.46V198.867H312.881V189.643H304.391V198.867H298.933V176.46H304.391V185.238H312.881V176.46H318.339Z" fill="#00023B"/>
<path d="M338.383 176.46V180.833H332.447V198.867H326.989V180.833H321.052V176.46H338.383Z" fill="#00023B"/>
<path d="M357.247 176.46V180.833H351.31V198.867H345.852V180.833H339.916V176.46H357.247Z" fill="#00023B"/>
<path d="M377.068 183.674C377.068 184.972 376.77 186.158 376.175 187.233C375.579 188.307 374.664 189.175 373.43 189.834C372.196 190.494 370.663 190.824 368.833 190.824H365.45V198.867H359.992V176.46H368.833C370.621 176.46 372.132 176.769 373.366 177.386C374.6 178.003 375.526 178.854 376.143 179.94C376.76 181.025 377.068 182.27 377.068 183.674ZM368.418 186.483C369.461 186.483 370.238 186.238 370.748 185.749C371.259 185.259 371.515 184.568 371.515 183.674C371.515 182.78 371.259 182.089 370.748 181.599C370.238 181.11 369.461 180.865 368.418 180.865H365.45V186.483H368.418Z" fill="#00023B"/>
<path d="M524.652 153.042L516.896 168.044V175.449H511.438V168.044L503.682 153.042H509.874L514.215 162.426L518.523 153.042H524.652Z" fill="white"/>
<path d="M534.961 175.704C533.205 175.704 531.641 175.321 530.237 174.587C528.865 173.853 527.747 172.768 526.95 171.395C526.152 170.023 525.769 168.395 525.769 166.544C525.769 164.724 526.183 163.097 526.981 161.724C527.779 160.32 528.897 159.235 530.301 158.5C531.705 157.766 533.269 157.383 535.025 157.383C536.78 157.383 538.344 157.766 539.749 158.5C541.153 159.235 542.27 160.32 543.068 161.724C543.866 163.097 544.281 164.724 544.281 166.544C544.281 168.363 543.866 169.991 543.068 171.395C542.238 172.768 541.121 173.853 539.717 174.587C538.28 175.321 536.716 175.704 534.961 175.704ZM534.961 170.98C536.014 170.98 536.908 170.597 537.642 169.831C538.376 169.065 538.727 167.98 538.727 166.544C538.727 165.107 538.376 164.022 537.674 163.256C536.94 162.49 536.078 162.107 535.025 162.107C533.971 162.107 533.078 162.49 532.376 163.256C531.673 163.99 531.322 165.107 531.322 166.544C531.322 167.98 531.673 169.065 532.376 169.831C533.046 170.597 533.908 170.98 534.961 170.98Z" fill="white"/>
<path d="M564.773 157.639V175.449H559.315V173.023C558.772 173.821 558.006 174.459 557.081 174.906C556.123 175.385 555.07 175.64 553.921 175.64C552.548 175.64 551.367 175.321 550.314 174.715C549.261 174.108 548.463 173.247 547.888 172.098C547.314 170.948 547.026 169.608 547.026 168.044V157.639H552.452V167.31C552.452 168.491 552.772 169.416 553.378 170.087C553.984 170.757 554.814 171.076 555.868 171.076C556.921 171.076 557.783 170.757 558.389 170.087C558.996 169.416 559.315 168.491 559.315 167.31V157.639H564.773Z" fill="white"/>
<path d="M574.157 160.607C574.795 159.618 575.593 158.852 576.551 158.309C577.508 157.735 578.561 157.447 579.742 157.447V163.224H578.242C576.87 163.224 575.848 163.512 575.178 164.118C574.508 164.693 574.157 165.714 574.157 167.182V175.449H568.699V157.639H574.157V160.607Z" fill="white"/>
<path d="M531.418 206.601H523.056L521.715 210.559H516.002L524.109 188.153H530.429L538.536 210.559H532.759L531.418 206.601ZM530.014 202.388L527.237 194.185L524.492 202.388H530.014Z" fill="white"/>
<path d="M558.07 195.366C558.07 196.675 557.783 197.856 557.176 198.941C556.57 199.994 555.676 200.856 554.431 201.526C553.186 202.197 551.654 202.516 549.835 202.516H546.452V210.559H540.994V188.153H549.835C551.622 188.153 553.122 188.472 554.367 189.078C555.612 189.685 556.538 190.547 557.144 191.632C557.751 192.717 558.07 193.962 558.07 195.366ZM549.42 198.175C550.473 198.175 551.239 197.92 551.75 197.441C552.261 196.962 552.516 196.26 552.516 195.366C552.516 194.473 552.261 193.77 551.75 193.292C551.239 192.813 550.473 192.558 549.42 192.558H546.452V198.175H549.42Z" fill="white"/>
<path d="M566.369 188.153H560.911V210.559H566.369V188.153Z" fill="white"/>
<path fill-rule="evenodd" clip-rule="evenodd" d="M399.863 190.27V185.056H452.002V180.215L459.45 187.663L452.002 195.112V190.27H399.863Z" fill="#00023B"/>
<path fill-rule="evenodd" clip-rule="evenodd" d="M213.623 190.27V185.056H265.762V180.215L273.21 187.663L265.762 195.112V190.27H213.623Z" fill="#00023B"/>
</svg>
