<svg width="68" height="80" viewBox="0 0 68 80" fill="none" xmlns="http://www.w3.org/2000/svg">
<g clip-path="url(#clip0_515_1099)">
<path d="M66.7786 43.7656C64.8193 39.9841 60.7577 31.9713 60.1049 28.2673C59.1898 12.5739 46.1782 0.12793 30.2546 0.12793C13.7366 0.12793 0.347656 13.5183 0.347656 30.0351C0.347656 36.9711 2.71476 43.3511 6.67741 48.4242C16.9213 61.4916 14.5751 79.9295 14.5751 79.9295H42.7401V71.2187C42.7401 69.9365 43.7796 68.8956 45.0629 68.8956H53.5636C55.2059 68.8956 56.6253 67.7447 56.9679 66.1397C58.0363 61.1398 60.2699 51.0026 61.0328 50.0223C61.6508 49.2279 64.0444 47.84 65.8239 46.8772C66.9364 46.2732 67.3604 44.8911 66.7786 43.7656Z" fill="#2E3062"/>
<path d="M15.5801 27.8223H10.5323V32.8698C8.84143 32.8698 7.46973 34.0684 7.46973 35.5491C7.46973 37.0301 8.84143 38.2309 10.5323 38.2309V43.2762H15.5801C15.5801 41.5851 16.7798 40.2136 18.2594 40.2136C19.7379 40.2136 20.9401 41.5851 20.9401 43.2762H25.9865V38.2309C27.6777 38.2309 29.0491 37.0301 29.0491 35.5491C29.0491 34.0684 27.6777 32.8698 25.9865 32.8698V27.8223H20.9401C20.9401 29.5131 19.7379 30.8848 18.2594 30.8848C16.7798 30.8848 15.5801 29.5131 15.5801 27.8223Z" fill="#1BCEB9"/>
<path d="M46.0789 37.5162V32.4687H41.0314C41.0314 30.7775 39.8317 29.4072 38.3518 29.4072C36.8722 29.4072 35.6725 30.7775 35.6725 32.4687H30.625V37.5162C32.3159 37.5162 33.6887 38.7148 33.6887 40.1958C33.6887 41.6779 32.3159 42.8776 30.625 42.8776V47.9229H35.6725C35.6725 49.6138 36.8722 50.9844 38.3518 50.9844C39.8317 50.9844 41.0314 49.6138 41.0314 47.9229H46.0789V42.8776C44.3881 42.8776 43.0152 41.6779 43.0152 40.1958C43.0152 38.7148 44.3881 37.5162 46.0789 37.5162Z" fill="white"/>
<path fill-rule="evenodd" clip-rule="evenodd" d="M18.2593 30.8853C16.7798 30.8853 15.58 29.5136 15.58 27.8227H10.5322V22.776C12.2245 22.776 13.5962 21.5763 13.5962 20.0956C13.5962 18.6158 12.2245 17.416 10.5322 17.416V12.3685H15.58C15.58 10.6763 16.7798 9.30566 18.2593 9.30566C19.7378 9.30566 20.94 10.6763 20.94 12.3685H25.9864V17.416C24.2953 17.416 22.925 18.6158 22.925 20.0956C22.925 21.5763 24.2953 22.776 25.9864 22.776V27.8227H20.94C20.94 29.5136 19.7378 30.8853 18.2593 30.8853Z" fill="#1BCEB9"/>
<path fill-rule="evenodd" clip-rule="evenodd" d="M22.917 20.0953C22.917 18.6154 24.2884 17.4157 25.9796 17.4157V12.3682H31.0271C31.0271 14.0579 32.2271 15.4321 33.7067 15.4321C35.1863 15.4321 36.386 14.0579 36.386 12.3682H41.4338V17.4157C43.1247 17.4157 44.4975 18.6154 44.4975 20.0953C44.4975 21.576 43.1247 22.7757 41.4338 22.7757V27.8224H36.386C36.386 26.1312 35.1863 24.7606 33.7067 24.7606C32.2271 24.7606 31.0271 26.1312 31.0271 27.8224H25.9796V22.7757C24.2884 22.7757 22.917 21.576 22.917 20.0953Z" fill="#1BCEB9"/>
<path fill-rule="evenodd" clip-rule="evenodd" d="M16.1606 27.8231C16.1606 29.1736 17.0774 30.305 18.2593 30.305C19.4403 30.305 20.3593 29.1736 20.3593 27.8231C20.3593 27.5023 20.6191 27.2422 20.94 27.2422H25.9864C26.3072 27.2422 26.567 27.5023 26.567 27.8231V32.331C28.3167 32.5813 29.6299 33.9441 29.6299 35.5499C29.6299 37.1558 28.3167 38.5205 26.567 38.7714V43.277C26.567 43.5979 26.3072 43.8579 25.9864 43.8579H20.94C20.6191 43.8579 20.3593 43.5979 20.3593 43.277C20.3593 41.9262 19.4403 40.7951 18.2593 40.7951C17.0774 40.7951 16.1606 41.9262 16.1606 43.277C16.1606 43.5979 15.9005 43.8579 15.58 43.8579H10.5322C10.2116 43.8579 9.95153 43.5979 9.95153 43.277V38.7714C8.20184 38.5208 6.88867 37.1558 6.88867 35.5499C6.88867 33.9441 8.20184 32.5813 9.95153 32.331V27.8231C9.95153 27.5023 10.2116 27.2422 10.5322 27.2422H15.58C15.9005 27.2422 16.1606 27.5023 16.1606 27.8231ZM15.0403 28.4037H11.1131V32.8706C11.1131 33.1912 10.853 33.4512 10.5322 33.4512C9.18163 33.4512 8.0502 34.3672 8.0502 35.5499C8.0502 36.7329 9.18136 37.6511 10.5322 37.6511C10.853 37.6511 11.1131 37.9112 11.1131 38.2317V42.6964H15.0403C15.2909 40.9467 16.6548 39.6335 18.2593 39.6335C19.8626 39.6335 21.2285 40.9467 21.4793 42.6964H25.4057V38.2317C25.4057 37.9112 25.6655 37.6511 25.9864 37.6511C27.3372 37.6511 28.4683 36.7329 28.4683 35.5499C28.4683 34.3672 27.3372 33.4512 25.9864 33.4512C25.6655 33.4512 25.4057 33.1912 25.4057 32.8706V28.4037H21.4793C21.2285 30.1534 19.8626 31.4663 18.2593 31.4663C16.6548 31.4663 15.2909 30.1534 15.0403 28.4037Z" fill="#2E3062"/>
<path fill-rule="evenodd" clip-rule="evenodd" d="M46.0788 38.0967C44.728 38.0967 43.5957 39.0124 43.5957 40.1954C43.5957 41.3792 44.728 42.2963 46.0788 42.2963C46.3996 42.2963 46.6597 42.5563 46.6597 42.8772V47.9225C46.6597 48.243 46.3996 48.5031 46.0788 48.5031H41.5709C41.3203 50.2528 39.9564 51.5648 38.3517 51.5648C36.7472 51.5648 35.3833 50.2528 35.1327 48.5031H30.6249C30.304 48.5031 30.0439 48.243 30.0439 47.9225V42.8772C30.0439 42.5563 30.304 42.2963 30.6249 42.2963C31.9757 42.2963 33.1079 41.3792 33.1079 40.1954C33.1079 39.0124 31.9757 38.0967 30.6249 38.0967C30.304 38.0967 30.0439 37.8366 30.0439 37.5158V32.4683C30.0439 32.1477 30.304 31.8876 30.6249 31.8876H35.1327C35.3833 30.1379 36.7472 28.8262 38.3517 28.8262C39.9564 28.8262 41.3203 30.1379 41.5709 31.8876H46.0788C46.3996 31.8876 46.6597 32.1477 46.6597 32.4683V37.5158C46.6597 37.8366 46.3996 38.0967 46.0788 38.0967ZM45.4982 36.9761V33.0492H41.0313C40.7104 33.0492 40.4506 32.7891 40.4506 32.4683C40.4506 31.1177 39.5336 29.9874 38.3517 29.9874C37.1701 29.9874 36.253 31.1177 36.253 32.4683C36.253 32.7891 35.9932 33.0492 35.6724 33.0492H31.2055C31.2055 33.0492 31.2055 36.9764 31.2055 36.9761C32.9554 37.2265 34.2695 38.5895 34.2695 40.1954C34.2695 41.8023 32.9552 43.1662 31.2055 43.4168V47.3419H35.6724C35.9932 47.3419 36.253 47.6016 36.253 47.9225C36.253 49.273 37.1701 50.4033 38.3517 50.4033C39.5336 50.4033 40.4506 49.273 40.4506 47.9225C40.4506 47.6016 40.7104 47.3419 41.0313 47.3419H45.4982V43.4168C43.7485 43.1662 42.4342 41.8023 42.4342 40.1954C42.4342 38.5895 43.7482 37.2265 45.4982 36.9761Z" fill="#2E3062"/>
<path fill-rule="evenodd" clip-rule="evenodd" d="M18.2589 31.4655C16.6544 31.4655 15.2905 30.1526 15.04 28.4029H10.5318C10.2112 28.4029 9.95117 28.1429 9.95117 27.8223V22.7756C9.95117 22.4551 10.2112 22.195 10.5318 22.195C11.8837 22.195 13.0151 21.2779 13.0151 20.0952C13.0151 18.913 11.8837 17.9962 10.5318 17.9962C10.2112 17.9962 9.95117 17.7365 9.95117 17.4156V12.3681C9.95117 12.0473 10.2112 11.7875 10.5318 11.7875H15.04C15.2903 10.0367 16.6542 8.72461 18.2589 8.72461C19.8623 8.72461 21.2284 10.0367 21.4793 11.7875H25.986C26.3069 11.7875 26.5666 12.0473 26.5666 12.3681V17.4156C26.5666 17.7365 26.3069 17.9962 25.986 17.9962C24.6355 17.9962 23.5052 18.9133 23.5052 20.0952C23.5052 21.2779 24.6352 22.195 25.986 22.195C26.3069 22.195 26.5666 22.4551 26.5666 22.7756V27.8223C26.5666 28.1429 26.3069 28.4029 25.986 28.4029H21.479C21.2281 30.1526 19.8623 31.4655 18.2589 31.4655ZM18.2589 30.3043C19.44 30.3043 20.359 29.1728 20.359 27.8223C20.359 27.5015 20.6188 27.2414 20.9396 27.2414H25.4054V23.3153C23.6557 23.065 22.3436 21.7011 22.3436 20.0952C22.3436 18.4905 23.6557 17.1266 25.4054 16.876V12.9487H20.9396C20.6188 12.9487 20.359 12.6887 20.359 12.3681C20.359 11.0165 19.44 9.88614 18.2589 9.88614C17.077 9.88614 16.1602 11.0165 16.1602 12.3681C16.1602 12.6887 15.9002 12.9487 15.5796 12.9487H11.1127V16.876C12.8635 17.1263 14.1764 18.4905 14.1764 20.0952C14.1764 21.7011 12.8635 23.065 11.1127 23.3153V27.2414H15.5796C15.9002 27.2414 16.1602 27.5015 16.1602 27.8223C16.1602 29.1728 17.077 30.3043 18.2589 30.3043Z" fill="#2E3062"/>
<path fill-rule="evenodd" clip-rule="evenodd" d="M22.3359 20.0958C22.3359 18.4911 23.6491 17.1272 25.3988 16.8766V12.3687C25.3988 12.0479 25.6586 11.7881 25.9794 11.7881H31.0269C31.3478 11.7881 31.6079 12.0479 31.6079 12.3687C31.6079 13.7187 32.5246 14.8518 33.7065 14.8518C34.8884 14.8518 35.8052 13.7187 35.8052 12.3687C35.8052 12.0479 36.0653 11.7881 36.3858 11.7881H41.4336C41.7542 11.7881 42.0143 12.0479 42.0143 12.3687V16.8766C43.7642 17.1272 45.0782 18.4911 45.0782 20.0958C45.0782 21.7014 43.7639 23.0656 42.0143 23.3159V27.8229C42.0143 28.1435 41.7542 28.4036 41.4336 28.4036H36.3858C36.0653 28.4036 35.8052 28.1435 35.8052 27.8229C35.8052 26.4721 34.8884 25.3421 33.7065 25.3421C32.5246 25.3421 31.6079 26.4721 31.6079 27.8229C31.6079 28.1435 31.3478 28.4036 31.0269 28.4036H25.9794C25.6586 28.4036 25.3988 28.1435 25.3988 27.8229V23.3159C23.6491 23.0656 22.3359 21.7014 22.3359 20.0958ZM23.4975 20.0958C23.4975 21.2785 24.6286 22.1956 25.9794 22.1956C26.3003 22.1956 26.56 22.4557 26.56 22.7762V27.242C26.56 27.242 30.4876 27.242 30.4873 27.242C30.7379 25.4926 32.1018 24.1806 33.7065 24.1806C35.311 24.1806 36.6749 25.4926 36.9255 27.242H40.8527V22.7762C40.8527 22.4557 41.1128 22.1956 41.4336 22.1956C42.7844 22.1956 43.9167 21.2785 43.9167 20.0958C43.9167 18.9137 42.7844 17.9969 41.4336 17.9969C41.1128 17.9969 40.8527 17.7371 40.8527 17.4162V12.9493H36.9255C36.6749 14.6982 35.311 16.0133 33.7065 16.0133C32.1021 16.0133 30.7382 14.6982 30.4876 12.9493H26.56V17.4162C26.56 17.7371 26.3003 17.9969 25.9794 17.9969C24.6286 17.9969 23.4975 18.9139 23.4975 20.0958Z" fill="#2E3062"/>
</g>
<defs>
<clipPath id="clip0_515_1099">
<rect width="66.899" height="80" fill="white" transform="translate(0.216797)"/>
</clipPath>
</defs>
</svg>
  