<svg xmlns="http://www.w3.org/2000/svg" width="161" height="160" fill="none" viewBox="0 0 161 160">
  <g clip-path="url(#a)">
    <path fill="#1BCEB9" d="M149.841 63.105c9.23-9.229 9.23-24.192 0-33.421-9.229-9.23-24.192-9.23-33.421 0-9.229 9.229-9.229 24.192 0 33.421 9.229 9.23 24.192 9.23 33.421 0Zm-17.055 61.09c13.054 0 23.636-10.582 23.636-23.636 0-13.054-10.582-23.636-23.636-23.636-13.054 0-23.637 10.582-23.637 23.636 0 13.054 10.583 23.636 23.637 23.636Z"/>
    <path fill="#E7E8F3" d="M144.331 34.145h-21.704c-.571 0-1.033.464-1.033 1.034v4.725c0 .57.463 1.033 1.033 1.033h21.704c.572 0 1.034-.463 1.034-1.033v-4.725c0-.571-.462-1.034-1.034-1.034Zm-16.979 12.904h-4.725c-.571 0-1.033.463-1.033 1.034v9.478c0 .571.463 1.034 1.033 1.034h4.725c.571 0 1.034-.463 1.034-1.034v-9.478c0-.572-.463-1.034-1.034-1.034Z"/>
    <path fill="#00023B" d="M133.151 21.05c-13.97 0-25.335 11.365-25.335 25.334 0 13.97 11.365 25.334 25.335 25.334 13.969 0 25.334-11.365 25.334-25.334 0-13.97-11.365-25.334-25.334-25.334Zm0 47.272c-12.097 0-21.939-9.841-21.939-21.938s9.842-21.938 21.939-21.938 21.938 9.841 21.938 21.938-9.841 21.938-21.938 21.938Zm-.365 6.904c-13.97 0-25.334 11.364-25.334 25.334 0 13.969 11.364 25.334 25.334 25.334 13.969 0 25.334-11.365 25.334-25.334 0-13.97-11.365-25.334-25.334-25.334Zm0 47.272c-12.097 0-21.938-9.841-21.938-21.938s9.841-21.939 21.938-21.939 21.938 9.842 21.938 21.939-9.841 21.938-21.938 21.938Z"/>
    <path fill="#00023B" d="M144.331 51.123h-9.478a1.698 1.698 0 1 0 0 3.396h9.479a1.698 1.698 0 1 0-.001-3.396Zm0-5.771h-9.478a1.698 1.698 0 1 0 0 3.396h9.479a1.698 1.698 0 1 0-.001-3.396Zm.001 11.545h-9.478a1.698 1.698 0 1 0 0 3.395h9.478a1.698 1.698 0 1 0 0-3.395Zm2.652 42.381-5.641-5.642a1.697 1.697 0 1 0-2.401 2.401l4.441 4.441-4.441 4.442a1.696 1.696 0 0 0 1.201 2.898c.434 0 .869-.166 1.201-.497l5.641-5.642a1.697 1.697 0 0 0-.001-2.4Zm-24.766 1.2 4.441-4.44a1.698 1.698 0 0 0-2.401-2.402l-5.642 5.642a1.696 1.696 0 0 0 0 2.402l5.642 5.641a1.69 1.69 0 0 0 1.201.497 1.696 1.696 0 0 0 1.2-2.898l-4.441-4.442Zm13.052-8.468a1.695 1.695 0 0 0-2.105 1.154l-3.99 13.677a1.7 1.7 0 0 0 3.26.952l3.99-13.678a1.698 1.698 0 0 0-1.155-2.106ZM107.1 81.73a5.288 5.288 0 0 1-4.241-4.145c0-.095-.191-.095-.191 0a5.288 5.288 0 0 1-4.242 4.146c-.095 0-.095.143 0 .19a5.29 5.29 0 0 1 4.242 4.146c0 .095.191.095.191 0a5.286 5.286 0 0 1 4.241-4.145c.096-.049.096-.191 0-.191ZM80.972 0a2.125 2.125 0 1 0 0 4.25 2.125 2.125 0 0 0 0-4.25Zm18.125 15.248c-2.813-.5-5-2.688-5.563-5.437 0-.125-.25-.125-.25 0-.562 2.75-2.75 4.937-5.562 5.437-.125 0-.125.188 0 .25 2.812.5 5 2.688 5.562 5.438 0 .125.25.125.25 0 .563-2.75 2.75-4.938 5.563-5.438.125-.063.125-.25 0-.25Zm45.234 17.199h-21.703a2.735 2.735 0 0 0-2.732 2.732v4.724a2.735 2.735 0 0 0 2.732 2.732h21.704a2.734 2.734 0 0 0 2.731-2.732V35.18a2.735 2.735 0 0 0-2.732-2.732Zm-.664 6.792h-20.376v-3.396h20.376v3.396Zm-16.315 6.113h-4.725a2.735 2.735 0 0 0-2.731 2.731v9.479a2.734 2.734 0 0 0 2.731 2.732h4.725a2.734 2.734 0 0 0 2.731-2.732v-9.478a2.735 2.735 0 0 0-2.731-2.732Zm-.665 11.546h-3.396v-8.15h3.396v8.15Z"/>
    <path fill="#999BBA" d="M100.382 108.689a8.903 8.903 0 0 0-6.715-8.137l-4.314-1.09c.42.485.682 1.11.682 1.8v37.828a2.765 2.765 0 0 1-2.764 2.765h4.135a1.95 1.95 0 0 1 1.95 1.951 5.983 5.983 0 0 1-5.982 5.983h12.253a2.475 2.475 0 0 0 2.47-2.612l-1.715-38.488ZM17.31 143.806c0-1.077.874-1.951 1.951-1.951h4.135a2.765 2.765 0 0 1-2.764-2.765v-37.828c0-.691.262-1.315.682-1.8l-4.315 1.09a8.902 8.902 0 0 0-6.714 8.137L8.57 147.177a2.474 2.474 0 0 0 2.47 2.612h12.253a5.983 5.983 0 0 1-5.983-5.983Z"/>
    <path fill="#E7E8F3" d="M87.27 98.499H23.395a2.764 2.764 0 0 0-2.765 2.764v37.829a2.764 2.764 0 0 0 2.765 2.764h63.873a2.764 2.764 0 0 0 2.765-2.764v-37.829a2.764 2.764 0 0 0-2.765-2.764Z"/>
    <path fill="#E7E8F3" d="M91.405 141.855H19.26a1.952 1.952 0 0 0-1.95 1.952 5.983 5.983 0 0 0 5.982 5.982h64.08a5.983 5.983 0 0 0 5.983-5.982 1.95 1.95 0 0 0-1.95-1.952Z"/>
    <path fill="#FFD8CF" d="M78.433 44.99c-.474 0-.939.04-1.393.11v16.435c0 .489-.023.973-.055 1.455.472.076.954.127 1.447.127a9.063 9.063 0 0 0 9.064-9.064 9.062 9.062 0 0 0-9.063-9.063Z"/>
    <path fill="#FFD8CF" d="M75.705 42.344c-2.196-.509-4.864-1.781-7.92-4.559a1.44 1.44 0 0 0-2.07.116c-3.306 3.86-15.029 15.567-32.09 10.707v12.927c0 11.939 9.769 21.708 21.708 21.708 11.939 0 21.707-9.769 21.707-21.708V43.998c0-.798-.558-1.474-1.335-1.654Z"/>
    <path fill="#FFD8CF" d="M33.625 61.535V48.607a35.268 35.268 0 0 1-4.591-1.667 2.761 2.761 0 0 0-3.002.516 9.016 9.016 0 0 0-2.863 6.598 9.063 9.063 0 0 0 9.063 9.063c.494 0 .975-.05 1.448-.127a21.971 21.971 0 0 1-.055-1.455Z"/>
    <path fill="#2E3062" d="M55.333 12.83c-16.235 0-29.518 13.282-29.518 29.517v5.335c.073-.075.14-.154.217-.226a2.761 2.761 0 0 1 3.002-.516c1.57.694 3.1 1.243 4.591 1.668 17.06 4.86 28.785-6.848 32.09-10.706a1.44 1.44 0 0 1 2.068-.117c3.058 2.779 5.725 4.05 7.92 4.56.778.18 1.336.855 1.336 1.653v1.104a9.034 9.034 0 0 1 7.81 2.554v-5.31c.002-16.234-13.281-29.517-29.516-29.517Zm30.405 62.455c4.146-6.503 2.188-12.833.359-16.409-1.605 2.545-4.433 4.241-7.665 4.241-.493 0-.975-.05-1.447-.126-.51 7.595-4.966 14.154-11.328 17.621v6.583a6.025 6.025 0 0 0 2.878 5.128c.71.437-.191-.076 5.855 2.932.814.401 1.888.825 2.717 1.085.164.052.33.097.496.144 3.194-1.17 6.013-3.026 7.839-5.917 3.347-5.3 1.393-10.435.162-12.733-.433-.809-.359-1.777.134-2.55ZM33.68 62.991a9.064 9.064 0 0 1-1.447.126c-3.231 0-6.06-1.696-7.664-4.241-1.829 3.576-3.787 9.907.359 16.409.492.772.567 1.74.134 2.548-1.232 2.299-3.186 7.434.162 12.734 1.826 2.89 4.644 4.747 7.839 5.916.165-.047.332-.092.496-.143.828-.26 1.903-.685 2.716-1.086 6.44-3.203 5.199-2.527 5.856-2.932a6.026 6.026 0 0 0 2.877-5.127v-6.583C38.646 77.145 34.19 70.586 33.68 62.99Z"/>
    <path fill="#FFD8CF" d="M17.31 143.807c0-1.078.873-1.952 1.95-1.952h4.136a2.764 2.764 0 0 1-2.765-2.764v-9.564l-11.007-2.693-1.055 20.343a2.474 2.474 0 0 0 2.47 2.611h12.253a5.981 5.981 0 0 1-5.983-5.981Zm83.731-16.973-11.007 2.693v9.564a2.764 2.764 0 0 1-2.765 2.764h4.135c1.078 0 1.952.874 1.952 1.952a5.983 5.983 0 0 1-5.983 5.982h12.253a2.475 2.475 0 0 0 2.47-2.612l-1.055-20.343Z"/>
    <path fill="#999BBA" d="M43.262 91.42a6 6 0 0 1-1.62 1.188l-5.367 2.646a18.933 18.933 0 0 1-3.361 1.27l-5.857 1.974h21.331l-5.126-7.077Zm34.49 5.104a18.962 18.962 0 0 1-3.361-1.27l-5.367-2.646a6 6 0 0 1-1.62-1.187l-5.126 7.078h21.331l-5.857-1.975Z"/>
    <path fill="#FFD8CF" d="M65.658 87.195v-6.583a21.514 21.514 0 0 1-10.325 2.63c-3.731 0-7.25-.953-10.325-2.63v6.583a6.021 6.021 0 0 1-1.746 4.226l5.126 7.078h13.89l5.125-7.078a6.023 6.023 0 0 1-1.745-4.226Z"/>
    <path fill="#00023B" d="m103.658 147.12-1.716-38.518a10.418 10.418 0 0 0-7.892-9.565l-4.073-1.028a1.562 1.562 0 1 0-.765 3.03l4.074 1.029a7.297 7.297 0 0 1 5.534 6.678l1.717 38.518a.903.903 0 0 1-.248.677.905.905 0 0 1-.663.286H87.374a1.562 1.562 0 1 0 0 3.125h12.252a4.057 4.057 0 0 0 2.934-1.263 4.041 4.041 0 0 0 1.098-2.969Zm-80.366 1.107H11.039a.903.903 0 0 1-.662-.286.927.927 0 0 1-.247-.708l1.714-38.457a7.307 7.307 0 0 1 5.537-6.709l4.143-1.046a1.562 1.562 0 1 0-.765-3.03l-4.143 1.046c-4.465 1.123-7.637 4.968-7.894 9.594l-1.714 38.458a4.05 4.05 0 0 0 1.098 2.998 4.052 4.052 0 0 0 2.933 1.263H23.29a1.562 1.562 0 1 0 0-3.123Zm39.346-80.089a1.563 1.563 0 0 0-2.2.194c-1.125 1.342-3.033 2.142-5.105 2.142-2.072 0-3.98-.8-5.105-2.142a1.563 1.563 0 0 0-2.395 2.008c1.71 2.04 4.515 3.26 7.5 3.26 2.985 0 5.788-1.219 7.5-3.26a1.563 1.563 0 0 0-.195-2.202Zm2.138-8.763a2.813 2.813 0 1 0 0-5.625 2.813 2.813 0 0 0 0 5.625Zm-18.887 0a2.813 2.813 0 1 0 0-5.625 2.813 2.813 0 0 0 0 5.625ZM59.612 125h-8.723a1.562 1.562 0 1 0 0 3.125h8.723a1.562 1.562 0 1 0 0-3.125Z"/>
    <path fill="#00023B" d="M87.27 96.936H23.395a4.332 4.332 0 0 0-4.327 4.327v37.828a4.332 4.332 0 0 0 4.327 4.327h63.873a4.332 4.332 0 0 0 4.327-4.327v-37.828a4.332 4.332 0 0 0-4.327-4.327Zm1.201 42.155c0 .663-.539 1.202-1.202 1.202H23.396c-.663 0-1.202-.54-1.202-1.202v-37.828c0-.663.54-1.201 1.202-1.201h63.873c.664 0 1.202.539 1.202 1.201v37.828Z"/>
    <path fill="#00023B" d="M91.405 140.293H19.26a3.518 3.518 0 0 0-3.513 3.514c0 4.16 3.385 7.545 7.545 7.545h64.08c4.16 0 7.546-3.385 7.546-7.545a3.517 3.517 0 0 0-3.513-3.514Zm-4.031 7.933H23.292a4.425 4.425 0 0 1-4.42-4.42.39.39 0 0 1 .389-.389h72.144a.39.39 0 0 1 .39.389 4.426 4.426 0 0 1-4.421 4.42ZM12.07 73.408h-1.437v-1.437c0-1.063-.875-2-2-2s-2 .875-2 2v1.437H5.195c-1.062 0-2 .875-2 2s.875 2 2 2h1.438v1.438c0 1.062.875 2 2 2s2-.875 2-2v-1.438h1.437c1.063 0 2-.875 2-2s-.875-2-2-2Zm2.652 14.312a2.125 2.125 0 1 0 0 4.25 2.125 2.125 0 0 0 0-4.25Zm63.711-44.292c-.324 0-.655.015-.984.047-.86.082-1.49.845-1.407 1.704a1.56 1.56 0 0 0 1.704 1.407c.226-.022.456-.033.688-.033 4.135 0 7.5 3.364 7.5 7.5 0 4.135-3.365 7.5-7.5 7.5-.226 0-.457-.013-.708-.04a1.562 1.562 0 0 0-.333 3.107 9.64 9.64 0 0 0 1.041.058c5.859 0 10.625-4.767 10.625-10.626 0-5.857-4.767-10.624-10.626-10.624Z"/>
    <path fill="#00023B" d="M76.057 40.822c-2.323-.539-4.753-1.95-7.223-4.194a3.046 3.046 0 0 0-2.223-.783 2.965 2.965 0 0 0-2.083 1.04c-3.054 3.564-14.277 14.835-30.475 10.22a1.563 1.563 0 0 0-1.991 1.502v12.928c0 12.831 10.439 23.27 23.27 23.27 12.83 0 23.27-10.439 23.27-23.27V43.997a3.255 3.255 0 0 0-2.545-3.175Zm-.58 20.713c0 11.108-9.037 20.145-20.144 20.145-11.108 0-20.145-9.037-20.145-20.145V50.612c16.761 3.675 28.28-7.721 31.628-11.595 2.842 2.565 5.714 4.195 8.535 4.85.063.014.126.06.126.13v17.538Z"/>
    <path fill="#00023B" d="M34.053 47.105a33.945 33.945 0 0 1-4.388-1.594 4.317 4.317 0 0 0-4.702.805c-2.133 2-3.357 4.82-3.357 7.738 0 5.86 4.767 10.626 10.626 10.626.296 0 .587-.015.876-.042a1.562 1.562 0 1 0-.288-3.111 6.73 6.73 0 0 1-.588.028c-4.136 0-7.5-3.365-7.5-7.5a7.41 7.41 0 0 1 2.369-5.459c.352-.33.863-.42 1.302-.225a37.109 37.109 0 0 0 4.794 1.74 1.563 1.563 0 0 0 .856-3.006Z"/>
    <path fill="#00023B" d="M55.333 11.267c-17.139 0-31.081 13.942-31.081 31.08v5.205a1.562 1.562 0 1 0 3.125 0v-5.205c0-15.415 12.54-27.955 27.956-27.955 15.415 0 27.955 12.54 27.955 27.955v4.997a1.562 1.562 0 1 0 3.125 0v-4.997c0-17.138-13.943-31.08-31.08-31.08Zm31.722 64.858c4.572-7.17 2.314-14.171.561-17.707a1.562 1.562 0 1 0-2.8 1.389c1.784 3.597 3.163 9.056-.395 14.637-.807 1.264-.881 2.846-.195 4.127 1.19 2.22 2.76 6.624-.105 11.16-1.439 2.277-3.737 4.027-6.83 5.2a1.562 1.562 0 1 0 1.108 2.922c3.742-1.419 6.556-3.59 8.364-6.453 3.85-6.096 1.435-12.035.218-14.305-.155-.29-.128-.653.075-.97ZM33.147 94.844c-2.978-1.172-5.2-2.891-6.602-5.112-2.866-4.537-1.296-8.94-.106-11.16.686-1.282.612-2.863-.194-4.127-3.552-5.57-2.183-11.02-.409-14.612a1.562 1.562 0 1 0-2.802-1.384c-1.743 3.53-3.987 10.52.576 17.676.202.317.23.68.075.97-1.217 2.27-3.633 8.21.218 14.306 1.765 2.795 4.49 4.932 8.1 6.351a1.562 1.562 0 1 0 1.143-2.909Zm-12.548 33.067-10.245-2.506a1.563 1.563 0 0 0-.743 3.035l10.245 2.506a1.563 1.563 0 0 0 .742-3.035Zm81.465-1.327a1.56 1.56 0 0 0-1.889-1.146l-10.128 2.477a1.563 1.563 0 0 0 .743 3.035l10.128-2.477a1.562 1.562 0 0 0 1.146-1.889Z"/>
    <path fill="#00023B" d="m49.352 97.166-4.825-6.662a1.561 1.561 0 0 0-2.378-.18c-.37.376-.773.672-1.199.882l-5.366 2.647c-.964.475-2.002.866-3.085 1.165-.028.008-.057.016-.085.026l-5.68 1.914a1.563 1.563 0 0 0 1 2.962l5.638-1.901a20.607 20.607 0 0 0 3.593-1.363l5.367-2.647c.212-.104.42-.22.623-.347l3.866 5.337a1.563 1.563 0 1 0 2.53-1.833Zm34.63-.191-5.731-1.932a1.95 1.95 0 0 0-.085-.026 17.502 17.502 0 0 1-3.084-1.165l-5.367-2.647a4.45 4.45 0 0 1-1.198-.881 1.562 1.562 0 0 0-2.379.18L61.13 97.42a1.562 1.562 0 1 0 2.53 1.832l4.05-5.592c.203.127.412.243.624.348l5.367 2.646a20.522 20.522 0 0 0 3.594 1.363l5.69 1.918a1.565 1.565 0 0 0 1.98-.982 1.563 1.563 0 0 0-.983-1.978Z"/>
    <path fill="#00023B" d="M45.008 79.414c-.863 0-1.563.7-1.563 1.563v6.218c0 1.17-.46 2.28-1.296 3.13a1.562 1.562 0 1 0 2.226 2.192 7.548 7.548 0 0 0 2.195-5.322v-6.218c0-.864-.7-1.563-1.562-1.563Zm23.508 10.91a4.444 4.444 0 0 1-1.296-3.129v-6.18a1.562 1.562 0 1 0-3.125 0v6.18a7.55 7.55 0 0 0 2.195 5.322 1.56 1.56 0 0 0 2.21.017 1.564 1.564 0 0 0 .016-2.21Z"/>
  </g>
  <defs>
    <clipPath id="a">
      <path fill="#fff" d="M0 0h160v160H0z" transform="translate(.667)"/>
    </clipPath>
  </defs>
</svg>
