<svg width="101" height="80" viewBox="0 0 101 80" fill="none" xmlns="http://www.w3.org/2000/svg">
<g clip-path="url(#clip0_517_1132)">
<path fill-rule="evenodd" clip-rule="evenodd" d="M92.1617 12.5177C92.1617 9.28485 89.537 6.66016 86.3041 6.66016H13.8575C10.6247 6.66016 8 9.28485 8 12.5177V67.5369H92.1617V12.5177Z" fill="#2E3062"/>
<path fill-rule="evenodd" clip-rule="evenodd" d="M100.303 68.4048C100.303 67.5427 99.603 66.8428 98.7409 66.8428H1.89598C1.03389 66.8428 0.333984 67.5427 0.333984 68.4048V71.7476C0.333984 72.6097 1.03389 73.3096 1.89598 73.3096H98.7409C99.603 73.3096 100.303 72.6097 100.303 71.7476V68.4048Z" fill="#2E3062"/>
<path d="M86.6949 12.3145H13V64.613H86.6949V12.3145Z" fill="white"/>
<path d="M66.6161 25.3456C62.2599 20.9897 56.472 18.5908 50.3188 18.5908C44.1655 18.5908 38.3777 20.9897 34.0214 25.3457C33.4938 25.8733 33.4945 26.7288 34.0214 27.2559L38.1127 31.3474C38.6403 31.875 39.496 31.8745 40.0231 31.3473C42.7746 28.5951 46.431 27.0793 50.3188 27.0793C54.2065 27.0793 57.863 28.5951 60.6146 31.3472C60.8679 31.6005 61.2115 31.743 61.5697 31.743C62.1534 31.743 62.4968 31.3755 62.5249 31.3473L66.6161 27.2558C67.1437 26.7283 67.1432 25.8727 66.6161 25.3456Z" fill="#5FE9D7"/>
<path d="M66.6157 25.3456C62.2595 20.9897 56.4716 18.5908 50.3184 18.5908V27.0794C54.2061 27.0794 57.8626 28.5952 60.6142 31.3473C60.8675 31.6006 61.2111 31.7431 61.5693 31.7431C62.153 31.7431 62.4964 31.3756 62.5244 31.3474L66.6157 27.2559C67.1433 26.7283 67.1428 25.8727 66.6157 25.3456Z" fill="#28E3CA"/>
<path d="M40.023 51.9388C38.8608 50.7767 35.7755 47.3402 35.7552 41.6403C35.7559 37.7541 37.2715 34.0987 40.023 31.3475L34.0216 25.3457C29.6656 29.7013 27.2666 35.4893 27.2666 41.6432C27.2666 47.7971 29.6656 53.585 34.0216 57.9406C34.2853 58.2044 34.6309 58.3362 34.9766 58.3362C35.3223 58.3362 35.668 58.2043 35.9318 57.9405L40.023 53.849C40.5505 53.3215 40.5505 52.4663 40.023 51.9388Z" fill="#BCF2EB"/>
<path d="M60.6144 51.9388C61.7765 50.7767 64.8619 47.3402 64.8822 41.6403C64.8815 37.7541 63.3659 34.0987 60.6144 31.3475L66.6158 25.3457C70.9718 29.7013 73.3708 35.4893 73.3708 41.6432C73.3708 47.7971 70.9718 53.585 66.6158 57.9406C66.3521 58.2044 66.0065 58.3362 65.6607 58.3362C65.315 58.3362 64.9693 58.2043 64.7056 57.9405L60.6144 53.849C60.0869 53.3215 60.0869 52.4663 60.6144 51.9388Z" fill="#1CD9BF"/>
<path d="M35.7552 41.6403C35.7559 37.7541 37.2715 34.0988 40.023 31.3475L34.0216 25.3457C29.6656 29.7013 27.2666 35.4893 27.2666 41.6432L35.7552 41.6403Z" fill="#82F0E1"/>
<path d="M60.6144 51.9392C61.7765 50.7771 64.8619 47.3406 64.8822 41.6406L73.3708 41.6435C73.3708 47.7974 70.9718 53.5853 66.6158 57.941C66.3521 58.2047 66.0065 58.3365 65.6607 58.3365C65.315 58.3365 64.9693 58.2046 64.7056 57.9409L60.6144 53.8493C60.0869 53.3218 60.0869 52.4667 60.6144 51.9392Z" fill="#1BCEB9"/>
<path d="M47.3173 38.6415C45.6625 40.2963 45.6625 42.9889 47.3173 44.6438C49.4078 46.7344 59.6819 53.2944 60.8465 54.0355C61.3806 54.3754 62.0791 54.2987 62.5269 53.8511C62.9745 53.4034 63.0512 52.7049 62.7112 52.1708C61.9701 51.0062 55.4102 40.7321 53.3196 38.6415C51.6648 36.9867 48.9722 36.9867 47.3173 38.6415Z" fill="#2E3062"/>
</g>
<defs>
<clipPath id="clip0_517_1132">
<rect width="100" height="80" fill="white" transform="translate(0.333984)"/>
</clipPath>
</defs>
</svg>
