<svg xmlns="http://www.w3.org/2000/svg" width="161" height="160" fill="none" viewBox="0 0 161 160">
  <path fill="#999BBA" d="M29 135h96c3.314 0 6-2.718 6-6.071V56.071c0-3.353-2.686-6.071-6-6.071H29c-3.314 0-6 2.718-6 6.071v72.858c0 3.353 2.686 6.071 6 6.071Z"/>
  <path fill="#F1F2FE" d="M125 63H29a6 6 0 0 0-6 6v60a6 6 0 0 0 6 6h96a6 6 0 0 0 6-6V69a6 6 0 0 0-6-6Z"/>
  <path fill="#1BCEB9" d="M108.824 82.374a24.028 24.028 0 0 1-3.533 24.734 28.075 28.075 0 0 0 17.667-14.134 27.568 27.568 0 0 0 1.767-19.434l-15.901 8.834ZM91.156 64.707a24.027 24.027 0 0 0-24.734 3.533 28.08 28.08 0 0 1 14.134-17.668 27.571 27.571 0 0 1 19.434-1.766l-8.834 15.9Z"/>
  <path fill="#2E3062" d="M87.97 106.523c-11.24 11.24-28.1 8.43-28.1 8.43s-2.81-16.86 8.43-28.1a13.91 13.91 0 0 1 19.67 19.67Z"/>
  <path fill="#E7E8F3" d="M86.548 96.686c3.103-3.104 3.732-7.507 1.405-9.834-2.328-2.328-6.73-1.699-9.834 1.405-3.104 3.103-3.733 7.506-1.405 9.834 2.328 2.327 6.73 1.698 9.834-1.405Z"/>
  <path fill="#1BCEB9" d="M103.88 88 86 70.12a43.168 43.168 0 0 1 16.092-26.821 41.217 41.217 0 0 1 19.901-7.957 46.305 46.305 0 0 1 15.86.805 46.294 46.294 0 0 1 .805 15.86 41.215 41.215 0 0 1-7.957 19.9A43.167 43.167 0 0 1 103.88 88Z"/>
  <path fill="#E7E8F3" stroke="#00023B" stroke-width="4" d="M127 56.5c0 5.093-4.541 9.5-10.5 9.5S106 61.593 106 56.5s4.541-9.5 10.5-9.5 10.5 4.407 10.5 9.5Z"/>
  <path fill="#00023B" d="M130.764 78.916a2.001 2.001 0 0 0-2.765 1.824V129a4.008 4.008 0 0 1-4 4h-96A4.003 4.003 0 0 1 24 129V69a4.005 4.005 0 0 1 4-4h33.38a2 2 0 0 0 0-4H28a7.909 7.909 0 0 0-4 1.112V57a4.005 4.005 0 0 1 4-4h41.179a2 2 0 0 0 0-4H28a8.008 8.008 0 0 0-8 8v72a8.01 8.01 0 0 0 8 8h95.999a8.01 8.01 0 0 0 8-8V80.74a1.869 1.869 0 0 0-1.235-1.824Z"/>
  <path fill="#00023B" d="M45.649 128.461c.392.368.91.561 1.44.537a1.984 1.984 0 0 0 1.386-.667 10.294 10.294 0 0 1 6.404-3.423 10.161 10.161 0 0 1 7.025 1.696 1.948 1.948 0 0 0 2.223-.018c.217-.152.403-.347.547-.573 1.695-2.872-3.563-4.981-7.809-5.255-.797-5.69-5.266-8.835-10.34-9.407a10.399 10.399 0 0 0 1.374-5.418 10.38 10.38 0 0 0-1.621-5.346 9.971 9.971 0 0 0-4.125-3.653 9.639 9.639 0 0 0-5.38-.853 1.988 1.988 0 0 0-1.337.763 2.101 2.101 0 0 0 .315 2.89c.414.34.942.498 1.468.439a5.774 5.774 0 0 1 3.718.737 6.03 6.03 0 0 1 2.521 2.906 6.248 6.248 0 0 1 .294 3.883 6.108 6.108 0 0 1-2.055 3.272 1.805 1.805 0 0 0-.507.703c-8.416 1.661-11.953 10.532-12.158 12.812-.094.532.02 1.081.316 1.528.296.447.75.756 1.266.86a1.953 1.953 0 0 0 1.49-.302 2.06 2.06 0 0 0 .855-1.29 12.997 12.997 0 0 1 2.425-5.21 12.551 12.551 0 0 1 4.4-3.588c4.811-2.234 12.218-1.328 13.03 4.661-4.608 1.222-9.575 4.941-7.165 7.316Z"/>
  <path fill="#00023B" d="M137.322 34.238c-13.639-3.47-30.999.34-41.149 11.657-16.51-2.26-28.735 10.544-31.29 21.946-.103.41-.076.842.076 1.235.152.393.422.727.77.955a1.942 1.942 0 0 0 2.305-.132c3.246-3.22 11.05-5.847 17.127-4.914-.323 2.015-1.85 4.9-.493 6.562l2.112 2.151a6.324 6.324 0 0 0-1.723 1.769 6.45 6.45 0 0 0-.927 2.306 6.504 6.504 0 0 0 .01 2.492 6.45 6.45 0 0 0 .945 2.298 15.506 15.506 0 0 0-9.403-1.277 15.677 15.677 0 0 0-8.422 4.45c-11.728 11.959-9.03 29.421-8.909 30.159.067.413.26.795.55 1.091.29.296.665.492 1.07.561 13.26 2.714 41.604-6.779 32.333-28.025 2.822 1.492 5.78.097 7.788-2.251l2.096 2.137a1.94 1.94 0 0 0 1.393.589 42.349 42.349 0 0 0 5.015-1.137c.976 6.21-1.603 14.184-4.786 17.492a2.05 2.05 0 0 0-.244 2.126c.158.343.407.633.719.838a1.95 1.95 0 0 0 1.045.322c6.865-1.63 12.903-5.775 16.967-11.646 4.064-5.87 5.871-13.059 5.078-20.199 10.921-9.818 14.866-29.492 11.409-42.065a2.018 2.018 0 0 0-.523-.957 1.962 1.962 0 0 0-.939-.533Zm-66.507 29.14a25.148 25.148 0 0 1 9.16-10.044 24.494 24.494 0 0 1 12.95-3.705 46.587 46.587 0 0 0-6.518 11.552 25.816 25.816 0 0 0-15.592 2.197Zm15.952 42.244c-8.428 8.594-20.527 8.47-24.687 8.123-.333-4.235-.462-16.574 7.966-25.168 11.456-10.876 27.39 5.365 16.721 17.045Zm23.436-2.059a27.162 27.162 0 0 0 2.127-15.96 43.622 43.622 0 0 0 11.362-6.508 25.785 25.785 0 0 1-3.666 13.155 25.126 25.126 0 0 1-9.823 9.313Zm-.499-19.202a40.363 40.363 0 0 1-5.463 1.459L88.188 69.453a40.384 40.384 0 0 1 5.89-14.727 39.574 39.574 0 0 1 11.059-11.217 38.763 38.763 0 0 1 14.476-5.928 38.452 38.452 0 0 1 15.598.3c2.082 9.588.633 19.622-4.07 28.192s-12.332 15.08-21.437 18.288ZM31 59a2 2 0 1 0 0-4 2 2 0 0 0 0 4Zm6 0a2 2 0 1 0 0-4 2 2 0 0 0 0 4Zm6 0a2 2 0 1 0 0-4 2 2 0 0 0 0 4Z"/>
</svg>
