<svg width="80" height="80" viewBox="0 0 80 80" fill="none" xmlns="http://www.w3.org/2000/svg">
<g clip-path="url(#clip0_517_1144)">
<path d="M39.984 79.9681C62.0666 79.9681 79.9681 62.0666 79.9681 39.984C79.9681 17.9015 62.0666 0 39.984 0C17.9015 0 0 17.9015 0 39.984C0 62.0666 17.9015 79.9681 39.984 79.9681Z" fill="#324A5E"/>
<path d="M39.984 79.9681C62.0666 79.9681 79.9681 62.0666 79.9681 39.984C79.9681 17.9015 62.0666 0 39.984 0C17.9015 0 0 17.9015 0 39.984C0 62.0666 17.9015 79.9681 39.984 79.9681Z" fill="#2E3062"/>
<path d="M64.2437 44.8138L69.0735 39.984L64.2437 35.1542L66.8565 28.8518L60.5541 26.2389V19.4139H53.729L51.1162 13.1115L44.8138 15.7243L39.984 10.8945L35.1542 15.7243L28.8518 13.1115L26.2389 19.4139H19.4139V26.2389L13.1115 28.8518L15.7243 35.1542L10.8945 39.984L15.7243 44.8138L13.1115 51.1162L19.4139 53.729V60.5541H26.2389L28.8518 66.8565L35.1542 64.2437L39.984 69.0735L44.8138 64.2437L51.1162 66.8565L53.729 60.5541H60.5541V53.729L66.8565 51.1162L64.2437 44.8138Z" fill="#1BCEB9"/>
<path d="M31.6071 40.1737C29.7385 40.1737 28.2341 39.5878 27.094 38.4001C25.9539 37.2125 25.3838 35.629 25.3838 33.6179C25.3838 31.4326 25.9855 29.7066 27.2048 28.4239C28.4242 27.1412 30.0394 26.5078 32.0663 26.5078C34.014 26.5078 35.5184 27.0937 36.611 28.2497C37.7036 29.4057 38.2421 31.0367 38.2421 33.1428C38.2421 35.2964 37.6403 37.0225 36.4368 38.2893C35.2175 39.5244 33.6181 40.1737 31.6071 40.1737ZM50.7678 26.8562L33.6656 53.0953H29.2001L46.2547 26.8562H50.7678ZM31.9554 29.7224C30.1819 29.7224 29.2793 30.9575 29.2793 33.4437C29.2793 35.7873 30.1344 36.9591 31.8287 36.9591C33.5548 36.9591 34.4257 35.7398 34.4257 33.3012C34.4257 30.91 33.6023 29.7224 31.9554 29.7224ZM47.9491 53.4753C46.0805 53.4753 44.5762 52.8895 43.436 51.7018C42.2959 50.5142 41.7258 48.9306 41.7258 46.9195C41.7258 44.7342 42.3276 43.0082 43.5469 41.7256C44.7662 40.4429 46.3814 39.8095 48.4083 39.8095C50.3561 39.8095 51.8763 40.3795 52.9689 41.5355C54.0615 42.6757 54.5999 44.3067 54.5999 46.397C54.5999 48.5506 53.9982 50.2766 52.7947 51.5593C51.5754 52.8261 49.9602 53.4753 47.9491 53.4753ZM48.2341 43.024C46.4606 43.024 45.5738 44.2592 45.5738 46.7453C45.5738 49.089 46.4289 50.2608 48.1549 50.2608C49.881 50.2608 50.752 49.0415 50.752 46.6028C50.752 45.4627 50.5144 44.5917 50.0552 43.9741C49.6118 43.3408 48.9942 43.024 48.2341 43.024Z" fill="white"/>
</g>
<defs>
<clipPath id="clip0_517_1144">
<rect width="80" height="80" fill="white"/>
</clipPath>
</defs>
</svg>
