<svg xmlns="http://www.w3.org/2000/svg" width="160" height="160" fill="none" viewBox="0 0 160 160">
  <path fill="#FFD8CF" d="m108.066 110.65 17.7-10.665c3.89-2.487 9.02-1.408 11.65 2.452l-35.352 28.389a25.513 25.513 0 0 1-15.988 3.374l-26.674-5.025a9.483 9.483 0 0 0-7.064 1.464l-5.157 3.473-1.789-27.121.216-.015c7.24-6.356 17.368-8.034 26.24-4.348l1.633.676a17.936 17.936 0 0 0 8.047 1.339l15.311-.992c4.806-.313 9.299 2.487 11.227 6.999Z"/>
  <path fill="#1BCEB9" d="M123.555 50.57a10.18 10.18 0 0 1 1.056 11.338 10.174 10.174 0 0 0-1.138 6.395l.012.075c.607 4.062-1.295 8.102-4.847 10.295l-.038.023a10.447 10.447 0 0 0-4.218 4.982l-.014.04c-1.543 3.825-5.246 6.403-9.437 6.566l-.073.003a10.699 10.699 0 0 0-6.206 2.28 10.732 10.732 0 0 1-11.571 1.077 10.694 10.694 0 0 0-6.52-1.093l-.073.01c-4.148.615-8.263-1.235-10.486-4.71l-.021-.036a10.445 10.445 0 0 0-5.067-4.117l-.042-.015c-3.898-1.499-6.511-5.119-6.665-9.223v-.075a10.203 10.203 0 0 0-2.302-6.075 10.169 10.169 0 0 1-1.055-11.34 10.184 10.184 0 0 0 1.14-6.395l-.014-.072c-.582-4.122 1.33-8.185 4.846-10.295l.039-.023a10.465 10.465 0 0 0 4.218-4.983l.015-.038c1.542-3.827 5.245-6.405 9.435-6.57l.073-.001a10.725 10.725 0 0 0 6.206-2.279 10.736 10.736 0 0 1 11.572-1.078 10.729 10.729 0 0 0 6.52 1.093l.072-.012c4.149-.613 8.264 1.237 10.488 4.713l.021.035a10.46 10.46 0 0 0 5.066 4.118l.042.015c3.844 1.424 6.474 5.065 6.665 9.223l.001.072a10.195 10.195 0 0 0 2.301 6.075Z"/>
  <path fill="#999BBA" d="m46.251 133.984.202 3.02-16.377 1.056-2.468-37.158 16.38-1.059.487 7.352 1.776 26.789Z"/>
  <path fill="#00023B" d="m56.167 74.658.002.058v.027c.178 4.924 3.35 9.255 8.08 11.035l.03.01.02.007a8.27 8.27 0 0 1 4.055 3.226l.01.016.02.03c2.683 4.128 7.642 6.319 12.637 5.594l.055-.007a8.834 8.834 0 0 1 5.344.86 13.12 13.12 0 0 0 13.928-1.3 8.775 8.775 0 0 1 5.049-1.83h.041l.055-.004c5.046-.209 9.512-3.28 11.387-7.832a.476.476 0 0 0 .014-.034l.007-.017a8.248 8.248 0 0 1 3.369-3.908l.037-.022.029-.017c4.319-2.624 6.637-7.466 5.903-12.337l-.006-.034-.01-.057a7.795 7.795 0 0 1 .915-4.963 12.055 12.055 0 0 0-1.268-13.63 7.869 7.869 0 0 1-1.818-4.713l-.001-.049v-.04a12.308 12.308 0 0 0-8.082-11.033.304.304 0 0 0-.035-.013l-.027-.01a8.286 8.286 0 0 1-4.042-3.219l-.029-.047c-2.686-4.131-7.648-6.33-12.657-5.593l-.04.006-.052.009a8.819 8.819 0 0 1-5.286-.867 13.12 13.12 0 0 0-13.927 1.298 8.812 8.812 0 0 1-5.036 1.828l-.054.001c-.013.001-.027 0-.039.002-5.057.202-9.529 3.278-11.406 7.835l-.02.052a8.282 8.282 0 0 1-3.377 3.911l-.026.014a12.301 12.301 0 0 0-5.93 12.389l.01.056a7.796 7.796 0 0 1-.914 4.964 12.04 12.04 0 0 0 1.269 13.631 7.887 7.887 0 0 1 1.816 4.717Zm.616-16.27a12.028 12.028 0 0 0 1.401-7.725l-.008-.052a8.069 8.069 0 0 1 3.894-8.051l.02-.013.027-.014a12.499 12.499 0 0 0 5.128-5.947l.017-.043.008-.02a8.6 8.6 0 0 1 7.625-5.193h.054l.037-.002a13.02 13.02 0 0 0 7.475-2.706 8.874 8.874 0 0 1 9.416-.877 13.027 13.027 0 0 0 7.846 1.277l.038-.005.052-.01a8.599 8.599 0 0 1 8.452 3.696l.011.017.026.04a12.502 12.502 0 0 0 6.139 4.896l.027.01.024.008a8.073 8.073 0 0 1 5.314 7.19l.001.05.002.044a12.143 12.143 0 0 0 2.804 7.297 7.81 7.81 0 0 1 .823 8.828 12.023 12.023 0 0 0-1.407 7.695l.004.031.011.056a8.08 8.08 0 0 1-3.901 8.053l-.042.023a12.499 12.499 0 0 0-5.128 5.947l-.016.04-.009.021c-1.25 3.021-4.252 5.057-7.642 5.193l-.039.001-.054.003a12.98 12.98 0 0 0-7.453 2.704 8.874 8.874 0 0 1-9.417.88 13.04 13.04 0 0 0-7.827-1.283l-.054.007a8.596 8.596 0 0 1-8.51-3.686l-.012-.018-.023-.036a12.514 12.514 0 0 0-6.162-4.906l-.025-.009a8.075 8.075 0 0 1-5.318-7.196l-.002-.06-.001-.03a12.14 12.14 0 0 0-2.806-7.298 7.795 7.795 0 0 1-.82-8.828Z"/>
  <path fill="#E7E8F3" stroke="#00023B" stroke-width="4" d="M98.343 39.198a3.686 3.686 0 0 1 3.312 1.662l-1.653 1.08m-1.659-2.742-18.34 40.676a3.684 3.684 0 0 0 4.946-1.64l16.903-33.682a3.682 3.682 0 0 0-.197-3.692l-1.653 1.08m-1.659-2.742a3.686 3.686 0 0 0-3.077 2.047L78.362 74.928m19.981-35.73-19.981 35.73m21.64-32.987-.012.007.012-.007Zm-21.64 32.987a3.685 3.685 0 0 0 1.64 4.946l-1.64-4.946ZM77.22 60.632c5.423-.505 8.94-5.812 8.427-11.317-.513-5.505-4.95-10.067-10.372-9.562-5.423.505-8.942 5.81-8.429 11.314.513 5.503 4.95 10.07 10.374 9.565ZM75.958 47.09c.736-.069 2.15.753 2.351 2.908.201 2.157-1.038 3.226-1.773 3.295-.735.068-2.15-.754-2.352-2.911-.2-2.155 1.038-3.224 1.774-3.292Zm18.614 21.045c.513 5.504 4.95 10.07 10.373 9.564 5.423-.505 8.94-5.811 8.427-11.316-.513-5.506-4.95-10.068-10.372-9.563-5.423.505-8.941 5.81-8.428 11.315Zm11.462-1.068c.201 2.157-1.038 3.226-1.773 3.294-.735.069-2.15-.754-2.351-2.91-.201-2.155 1.037-3.224 1.773-3.293.736-.068 2.15.753 2.351 2.909Z"/>
  <path fill="#00023B" d="M138.939 101.213a10.72 10.72 0 0 0-14.495-2.983l-15.822 9.359a13.57 13.57 0 0 0-12.159-6.015l-15.322 1.001a16.234 16.234 0 0 1-7.111-1.145l-1.63-.661a27.54 27.54 0 0 0-25.401 2.393l-.232-3.532a2.122 2.122 0 0 0-2.256-1.98l-16.8 1.102-.06.006a2.122 2.122 0 0 0-1.92 2.251l2.415 36.867a2.121 2.121 0 0 0 2.256 1.979l16.8-1.099.057-.005a2.122 2.122 0 0 0 1.922-2.252l-.116-1.765 4.138-2.737a7.512 7.512 0 0 1 5.516-1.129l26.676 4.874c.047.008.093.015.14.02a28.285 28.285 0 0 0 17.308-3.61c.086-.049.169-.105.248-.166l35.42-27.894a2.124 2.124 0 0 0 .428-2.879Zm-94.192 32.569.057.877-12.561.822-2.138-32.632 12.565-.824 2.076 31.757Zm55.836-5.227a24.034 24.034 0 0 1-14.498 2.999l-26.603-4.861a11.732 11.732 0 0 0-8.621 1.765l-2.116 1.398-1.42-21.696a23.327 23.327 0 0 1 23.48-3.458l1.632.661a20.467 20.467 0 0 0 8.982 1.448l15.321-1.002a9.31 9.31 0 0 1 9.5 6.564l-22.823 1.495a2.123 2.123 0 0 0 .278 4.236l25.182-1.651.059-.006a2.123 2.123 0 0 0 1.921-2.252 13.567 13.567 0 0 0-.461-2.722l16.231-9.604.047-.028a6.482 6.482 0 0 1 7.397.342l-33.488 26.372Z"/>
</svg>
